<?xml version="1.0" encoding="UTF-8"?>
<svg version="1.1" viewBox="0 0 666.67 666.67" xmlns="http://www.w3.org/2000/svg">
<defs>
<clipPath id="af">
<path d="m0 500h500v-500h-500z"/>
</clipPath>
<clipPath id="z">
<path d="m0 500h500v-500h-500z"/>
</clipPath>
<clipPath id="t">
<path d="m0 500h500v-500h-500z"/>
</clipPath>
<clipPath id="s">
<path d="m372.66 449.56h50.045v-73.224h-50.045z"/>
</clipPath>
<clipPath id="ap">
<path d="m0 500h500v-500h-500z"/>
</clipPath>
<clipPath id="ae">
<path d="m0 500h500v-500h-500z"/>
</clipPath>
<clipPath id="ad">
<path d="m113.8 212.74h89.255v-55.103h-89.255z"/>
</clipPath>
<clipPath id="ac">
<path d="m113.8 198.09h31.247v-40.45h-31.247z"/>
</clipPath>
<clipPath id="ab">
<path d="m115.19 212.74h86.456v-49.915h-86.456z"/>
</clipPath>
<clipPath id="aa">
<path d="m113.8 228.16h89.242v-60.305h-89.242z"/>
</clipPath>
<clipPath id="y">
<path d="m113.8 213.5h31.235v-45.652h-31.235z"/>
</clipPath>
<clipPath id="x">
<path d="m115.19 228.16h86.456v-49.915h-86.456z"/>
</clipPath>
<clipPath id="w">
<path d="m122.52 178.45h41.458v-56.57h-41.458z"/>
</clipPath>
<clipPath id="v">
<path d="m124.73 178.45h34.735v-20.722h-34.735z"/>
</clipPath>
<clipPath id="u">
<path d="m126.12 176.37h41.458v-54.853h-41.458z"/>
</clipPath>
<clipPath id="r">
<path d="m0 500h500v-500h-500z"/>
</clipPath>
<clipPath id="q">
<path d="m0 500h500v-500h-500z"/>
</clipPath>
<clipPath id="p">
<path d="m382.71 157.66h2.564v-1.764h-2.564z"/>
</clipPath>
<clipPath id="o">
<path d="m216.53 212.18h163.58v-94.456h-163.58z"/>
</clipPath>
<clipPath id="n">
<path d="m326.51 188.36h61.516v-34.19h-61.516z"/>
</clipPath>
<clipPath id="m">
<path d="m313.11 163.55h75.937v-48.37h-75.937z"/>
</clipPath>
<clipPath id="l">
<path d="m216.53 173.53h96.577v-58.344h-96.577z"/>
</clipPath>
<clipPath id="k">
<path d="m284.09 232.74h100.61v-61.185h-100.61z"/>
</clipPath>
<clipPath id="j">
<path d="m216.53 229.79h163.99v-93.984h-163.99z"/>
</clipPath>
<clipPath id="i">
<path d="m286.48 234.58h102.57v-61.39h-102.57z"/>
</clipPath>
<clipPath id="h">
<path d="m313.11 177.55h75.937v-44.274h-75.937z"/>
</clipPath>
<clipPath id="g">
<path d="m216.53 191.61h96.577v-58.344h-96.577z"/>
</clipPath>
<clipPath id="f">
<path d="m323.66 149.64h2.528v-1.676h-2.528z"/>
</clipPath>
<clipPath id="e">
<path d="m318.91 162.81h9.489v-17.651h-9.489z"/>
</clipPath>
<clipPath id="d">
<path d="m228.25 252.36h163.8v-101.31h-163.8z"/>
</clipPath>
<clipPath id="c">
<path d="m222.28 232.64h106.14v-61.865h-106.14z"/>
</clipPath>
<clipPath id="b">
<path d="m228.25 270.44h163.8v-96.177h-163.8z"/>
</clipPath>
<clipPath id="a">
<path d="m220.25 228.94h101.7v-59.608h-101.7z"/>
</clipPath>
<clipPath id="au">
<path d="m219.33 226.06h99.577v-82.238h-99.577z"/>
</clipPath>
<clipPath id="at">
<path d="m219.33 226.06h99.162v-56.727h-99.162z"/>
</clipPath>
<clipPath id="as">
<path d="m317.59 213.57h74.464v-69.85h-74.464z"/>
</clipPath>
<clipPath id="ar">
<path d="m376.14 214.61h3.003v-2.113h-3.003z"/>
</clipPath>
<clipPath id="aq">
<path d="m320.79 250.23h61.516v-39.445h-61.516z"/>
</clipPath>
<clipPath id="ao">
<path d="m278.37 294.61h100.61v-61.186h-100.61z"/>
</clipPath>
<clipPath id="an">
<path d="m307.38 220.17h75.937v-48.37h-75.937z"/>
</clipPath>
<clipPath id="am">
<path d="m307.38 239.41h75.937v-44.274h-75.937z"/>
</clipPath>
<clipPath id="al">
<path d="m210.81 253.48h96.577v-58.344h-96.577z"/>
</clipPath>
<clipPath id="ak">
<path d="m210.81 230.14h96.577v-58.344h-96.577z"/>
</clipPath>
<clipPath id="aj">
<path d="m183.97 308.29h84.542v-33.033h-84.542z"/>
</clipPath>
<clipPath id="ai">
<path d="m183.97 325.96h84.542v-48.768h-84.542z"/>
</clipPath>
<clipPath id="ah">
<path d="m183.97 308.29h53.858v-33.033h-53.858z"/>
</clipPath>
<clipPath id="ag">
<path d="m176.04 344.83h60.971v-68.292h-60.971z"/>
</clipPath>
</defs>
<g transform="matrix(1.3333 0 0 -1.3333 0 666.67)">
<g clip-path="url(#af)">
<g transform="translate(97.756 80.058)">
<path d="m0 0c84.083-43.925 220.41-43.926 304.49-1e-3 84.083 43.927 84.083 115.14 0 159.07-84.082 43.926-220.41 43.926-304.49 1e-3 -84.082-43.924-84.082-115.14 1e-3 -159.07" fill="#f5f5f5"/>
</g>
</g>
<g clip-path="url(#z)">
<g transform="translate(203.95 118.21)">
<path d="m0 0c22.655-10.799 59.385-10.799 82.04 0 22.655 10.796 22.655 28.304 0 39.103-22.655 10.795-59.385 10.795-82.04 0-22.655-10.799-22.655-28.307 0-39.103" fill="#ececec"/>
</g>
<g transform="translate(400.16 144.94)">
<path d="m0 0-80.972-46.75c-1.195-0.69-3.134-0.69-4.33 0l-101.28 58.476c-1.196 0.69-1.196 1.809 0 2.5l80.975 46.751c1.195 0.69 3.133 0.69 4.33 0l101.28-58.477c1.195-0.69 1.195-1.81 0-2.5" fill="#ececec"/>
</g>
</g>
<g clip-path="url(#t)">
<g transform="translate(422.7 401.93)">
<path d="m0 0v-21.469s-8.826-4.128-25.035-4.128c-16.2 0-25.01 4.136-25.01 4.136v21.049l16.88 47.77c-0.222-1.497 0.658-3.034 2.639-4.174 3.153-1.823 6.19-2.028 9.731-0.61 0.452 0.174 0.871 0.38 1.268 0.61 2.099 1.212 2.963 2.867 2.583 4.444z" fill="#f5f5f5"/>
</g>
<g clip-path="url(#s)" opacity=".5">
<g transform="translate(422.7 401.93)">
<path d="m0 0v-21.469s-8.826-4.128-25.035-4.128c-16.2 0-25.01 4.136-25.01 4.136v21.049l16.88 47.77c-0.222-1.497 0.658-3.034 2.639-4.174 3.153-1.823 6.19-2.028 9.731-0.61 0.452 0.174 0.871 0.38 1.268 0.61 2.099 1.212 2.963 2.867 2.583 4.444z" fill="#fff"/>
</g>
</g>
<g transform="translate(420.76 251.43)">
<path d="m0 0c-1.222-1.688-3.017-3.271-5.396-4.645-9.776-5.644-25.624-5.644-35.399 0-2.38 1.374-4.176 2.957-5.396 4.645-1.195 1.651-1.832 3.403-1.918 5.163v-11.148c0.174-3.56 2.607-7.091 7.314-9.807 9.775-5.644 25.623-5.644 35.399 0 4.887 2.821 7.331 6.52 7.331 10.218v11.148c0-1.898-0.649-3.795-1.935-5.574" fill="#f5f5f5"/>
</g>
<g transform="translate(420.76 262.58)">
<path d="m0 0c-1.222-1.688-3.017-3.271-5.396-4.645-0.573-0.33-1.169-0.637-1.781-0.929-9.221-4.399-22.616-4.399-31.838 0-0.611 0.292-1.208 0.599-1.78 0.929-2.38 1.374-4.176 2.957-5.396 4.645-1.195 1.651-1.832 3.403-1.918 5.163v-11.148c0.086-1.76 0.723-3.512 1.918-5.162 1.22-1.689 3.016-3.271 5.396-4.645 9.775-5.644 25.623-5.644 35.399 0 2.379 1.374 4.174 2.956 5.396 4.645 1.286 1.779 1.935 3.675 1.935 5.573v11.148c0-1.898-0.649-3.795-1.935-5.574" fill="#ececec"/>
</g>
<g transform="translate(420.76 273.73)">
<path d="m0 0c-1.222-1.688-3.017-3.271-5.396-4.645-0.573-0.33-1.169-0.637-1.781-0.929-9.221-4.4-22.616-4.4-31.838 0-0.611 0.292-1.208 0.599-1.78 0.929-2.38 1.374-4.176 2.957-5.396 4.645-1.195 1.651-1.832 3.402-1.918 5.163v-11.148c0.086-1.76 0.723-3.512 1.918-5.163 1.22-1.688 3.016-3.271 5.396-4.644 0.572-0.331 1.169-0.638 1.78-0.93 9.222-4.399 22.617-4.399 31.838 0 0.612 0.292 1.208 0.599 1.781 0.93 2.379 1.373 4.174 2.956 5.396 4.644 1.286 1.779 1.935 3.676 1.935 5.574v11.148c0-1.898-0.649-3.795-1.935-5.574" fill="#f5f5f5"/>
</g>
<g transform="translate(372.65 401.51)">
<path d="m0 0v-122.62c0.086-1.76 0.724-3.511 1.918-5.162 1.221-1.689 3.017-3.271 5.396-4.645 0.573-0.33 1.169-0.637 1.781-0.929 2.308-1.101 4.879-1.927 7.58-2.477l-4.526 129.23z" fill="#f5f5f5"/>
</g>
<g transform="translate(410.54 394.91)">
<path d="m0 0-4.525-129.23c2.698 0.551 5.266 1.375 7.573 2.476 0.611 0.292 1.208 0.599 1.78 0.929 2.38 1.374 4.175 2.957 5.397 4.645 1.286 1.78 1.934 3.676 1.934 5.574v122.62z" fill="#f5f5f5"/>
</g>
<g transform="translate(372.65 401.51)">
<path d="m0 0v-122.62c0.086-1.76 0.724-3.511 1.918-5.162 1.221-1.689 3.017-3.271 5.396-4.645 0.573-0.33 1.169-0.637 1.781-0.929 2.308-1.101 4.879-1.927 7.58-2.477l-4.526 129.23z" fill="#e1e1e1"/>
</g>
<g transform="translate(410.54 394.91)">
<path d="m0 0-4.525-129.23c2.698 0.551 5.266 1.375 7.573 2.476 0.611 0.292 1.208 0.599 1.78 0.929 2.38 1.374 4.175 2.957 5.397 4.645 1.286 1.78 1.934 3.676 1.934 5.574v122.62z" fill="#e1e1e1"/>
</g>
<g transform="translate(384.8 394.91)">
<path d="m0 0v-127.98c1.45-0.503 2.962-0.925 4.525-1.243 2.695-0.549 5.518-0.823 8.342-0.823h1e-3c2.824 0 5.648 0.275 8.342 0.824 1.563 0.319 3.075 0.741 4.525 1.245v127.98z" fill="#ececec"/>
</g>
<g transform="translate(403.17 445.11)">
<path d="m0 0c-0.396-0.23-0.815-0.436-1.268-0.61-3.541-1.418-6.578-1.212-9.731 0.61-1.98 1.141-2.86 2.678-2.639 4.175l5.762 16.13c0.443 1.061 1.402 1.584 2.368 1.584h8e-3c0.967 0 1.934-0.523 2.377-1.577l5.698-15.844c0-8e-3 8e-3 -0.016 8e-3 -0.024 0.38-1.576-0.483-3.232-2.583-4.444" fill="#e1e1e1"/>
</g>
<g transform="translate(415.37 235.64)">
<path d="m0 0c-8.399-4.85-21.274-5.52-30.937-2.034-0.542 0.195-1.069 0.408-1.588 0.63-0.243 0.102-0.49 0.199-0.726 0.307-0.741 0.34-1.463 0.701-2.147 1.097-4.707 2.717-7.14 6.247-7.315 9.808v-30.352c-0.188-3.834 2.246-7.703 7.315-10.63 0.604-0.348 1.231-0.675 1.878-0.98 0.243-0.115 0.499-0.211 0.747-0.319 0.414-0.181 0.823-0.368 1.252-0.532 0.331-0.127 0.676-0.233 1.014-0.349 0.361-0.125 0.715-0.257 1.083-0.371 0.403-0.123 0.817-0.224 1.227-0.335 0.317-0.084 0.63-0.177 0.952-0.254 0.47-0.112 0.95-0.203 1.429-0.297 0.271-0.053 0.538-0.117 0.812-0.164 0.539-0.095 1.087-0.168 1.636-0.242 0.217-0.029 0.431-0.066 0.648-0.091 0.61-0.072 1.223-0.121 1.838-0.167 0.159-0.012 0.317-0.03 0.476-0.039 0.67-0.042 1.341-0.063 2.013-0.074 0.105-1e-3 0.209-8e-3 0.315-8e-3 0.722-6e-3 1.442 9e-3 2.162 0.039 0.055 3e-3 0.109 2e-3 0.164 4e-3 0.761 0.035 1.517 0.09 2.272 0.165 0.012 0 0.026 1e-3 0.04 2e-3 4.643 0.461 9.092 1.685 12.773 3.665 0.22 0.118 0.453 0.223 0.667 0.347 4.888 2.822 7.331 6.521 7.331 10.219v31.174c0-3.698-2.443-7.398-7.331-10.219" fill="#e1e1e1"/>
</g>
</g>
<g clip-path="url(#ap)">
<g transform="translate(113.48 217.92)">
<path d="m0 0c-2.893 0.729-18.323 9.514-19.89 10.58-1.566 1.066-4.676 3.276-4.676 7.085 0 3.378 0.354 35.152 3.11 50.507 1.356 7.553 6.255 17.449 15.855 23.399s19.243 10.256 27.379 6.882c8.138-3.374 15.552-9.593 18.749-17.092 3.198-7.5 5.393-22.519 5.619-28.329 0.228-5.809 0-25.734 0-27.502 0-1.767-0.32-4.072-9.846-9.972-9.527-5.9-22.695-12.995-26.764-14.829-3.098-1.394-6.914-1.39-9.536-0.729" fill="#2b454e"/>
</g>
<g transform="translate(111.1 305.36)">
<path d="m0 0c-0.877-0.506-3.419 0.749-3.802 1.377-0.382 0.628-0.479 6.08 1.418 9.093 1.897 3.012 13.758 8.554 16.688 8.146 2.929-0.408 5.078-2.699 5.443-3.475s0.764-5.848 0-6.882c-0.764-1.035-3.471 0.555-3.708 1.001-0.238 0.446 0.893 4.143-1.022 4.916-1.736 0.701-9.987-2.806-13.359-5.633-1.458-1.222-1.387-4.279-1.323-5.79 0.064-1.512 0.11-2.496-0.335-2.753" fill="#375a64"/>
</g>
<g transform="translate(108.72 269.58)">
<path d="m0 0c1.705 16.516 4.768 26.151 20.919 33.343s22.411 1.067 24.703-4.439c3.02-7.722 5.073-21.918 5.293-27.528 0.227-5.809 0-25.734 0-27.501 0-1.768-0.321-4.073-9.847-9.973-9.527-5.9-22.694-12.995-26.764-14.828-3.097-1.395-6.914-1.391-9.536-0.73-0.401 0.102-1.051 0.362-1.865 0.732-5.029 6.431-4.459 35.85-2.903 50.924" fill="#375a64"/>
</g>
<g transform="translate(146.37 309.37)">
<path d="m0 0c-4.211 2.468-11.138 4.096-21.292-0.429-18.161-8.092-22.771-18.222-24.602-35.966-0.336-3.253-0.823-7.131-1.033-11.304l-1.499 0.905c0.212 4.502 0.646 8.356 1.027 11.831 1.964 17.915 7.375 27.818 24.726 35.545 9.602 4.275 15.92 3.714 20.095 1.612 0.795-0.612 1.543-1.214 2.578-2.194" fill="#1a2e35"/>
</g>
<g transform="translate(147 308.91)">
<path d="m0 0c-4.211 2.468-11.137 4.096-21.292-0.429-18.161-8.092-22.771-18.222-24.602-35.966-0.336-3.253-0.823-7.131-1.033-11.304l-1.499 0.905c0.212 4.502 0.646 8.356 1.027 11.831 1.965 17.915 7.375 27.818 24.726 35.545 9.602 4.275 16.09 3.565 20.265 1.463 0.796-0.611 1.373-1.065 2.408-2.045" fill="#375a64"/>
</g>
<g transform="translate(141.12 293.21)">
<path d="m0 0-5.488 3.131c-0.563 0.321-1.282 0.126-1.605-0.436l-5.633-9.79c-0.323-0.561-0.131-1.282 0.429-1.608l5.42-3.162c0.56-0.326 1.278-0.136 1.603 0.425l5.705 9.843c0.325 0.561 0.132 1.276-0.431 1.597" fill="#1a2e35"/>
</g>
<g transform="translate(135.23 282.47)">
<path d="m0 0 5.407 9.328c0.162 0.28 0.066 0.638-0.216 0.798l-4.975 2.839c-0.282 0.161-0.641 0.063-0.803-0.217l-5.344-9.289c-0.162-0.28-0.066-0.641 0.214-0.804l4.916-2.867c0.28-0.163 0.638-0.068 0.801 0.212" fill="#375a64"/>
</g>
<g transform="translate(136.39 286.93)">
<path d="m0 0c0.288 0.167 0.521 0.534 0.521 0.822v4.464c0 0.287-0.233 0.386-0.521 0.22-0.288-0.167-0.521-0.534-0.521-0.822v-4.464c0-0.287 0.233-0.386 0.521-0.22" fill="#2b454e"/>
</g>
<g transform="translate(133.49 285.25)">
<path d="m0 0c0.288 0.167 0.521 0.534 0.521 0.822v4.464c0 0.287-0.233 0.386-0.521 0.22s-0.521-0.534-0.521-0.822v-4.464c0-0.287 0.233-0.386 0.521-0.22" fill="#2b454e"/>
</g>
<g transform="translate(116.2 255.62)">
<path d="m0 0s2.725-2.244 4.676-10.681 3.14-19.074 0.983-20.347c-2.158-1.274-5.226 1.394-5.992 2.316-1.569 1.89-1.178 21.95 0.333 28.712" fill="#1a2e35"/>
</g>
<g transform="translate(116.2 255.62)">
<path d="m0 0s2.725-2.244 4.676-10.681 3.14-19.074 0.983-20.347l33.041 19.461c2.158 1.274 2.689 12.445 0.738 20.882-1.286 5.559-3.653 8.197-5.12 9.35-0.681 0.536-1.62 0.594-2.366 0.154l-31.952-18.819" fill="#2b454e"/>
</g>
<g transform="translate(149.82 273.01)">
<path d="m0 0c1.583-0.786 4.262-2.931 5.472-8.646 0.382-1.805-0.253-3.563-1.352-4.339-1.1-0.777-24.713-14.21-27.844-16.076-2.7-1.609-4.106 0.531-4.698 1.866h-2e-3c-0.985 2.382-1.863 4.232-2.604 5.653-1.383 3.154-2.591 4.151-2.591 4.151l31.472 17.295c0.656 0.386 1.465 0.434 2.147 0.096" fill="#1a2e35"/>
</g>
<g transform="translate(100.49 260.25)">
<path d="m0 0s0.948-3.683 0.892-5.254c-0.013-0.363-0.485-0.551-0.629-0.555-0.841-0.02-2.884 1.253-3.057 1.596-0.172 0.342 0.818 4.48 0.818 4.48z" fill="#1a2e35"/>
</g>
<g transform="translate(101.51 261.65)">
<path d="m0 0c0 1.053-0.854 1.907-1.907 1.907s-1.907-0.854-1.907-1.907 0.854-1.907 1.907-1.907 1.907 0.854 1.907 1.907" fill="#1a2e35"/>
</g>
<g transform="translate(125.4 319.63)">
<path d="m0 0c2.091 0.201 4.057 0.018 4.561-2.085 0.502-2.104 0.319-3.994 0-4.261-1.095 0.04-2.648 1.01-2.826 1.343-0.238 0.446 0.893 4.143-1.022 4.916-0.174 0.07-0.418 0.096-0.713 0.087" fill="#1a2e35"/>
</g>
<g transform="translate(148.33 274.55)">
<path d="m0 0c0.656 0.386 1.466 0.435 2.147 0.096 1.583-0.786 4.262-2.93 5.472-8.646 0.382-1.804-0.253-3.563-1.352-4.339-1.1-0.777-24.713-14.21-27.844-16.076-2.7-1.608-4.106 0.53-4.698 1.866h-2e-3c-3.263 6.841-5.857 8.172-5.857 8.172z" fill="#2b454e"/>
</g>
</g>
<g clip-path="url(#ae)">
<g transform="translate(142.67 158.21)">
<path d="m0 0-26.478 15.287c-1.314 0.759-2.378 2.604-2.378 4.12l-0.014-0.304c0 1.516 1.065 3.36 2.379 4.119l53.25 30.744c1.314 0.759 3.444 0.759 4.757 0l26.478-15.287c1.314-0.759 2.379-2.603 2.379-4.119l0.013 0.304c0-1.516-1.065-3.361-2.379-4.119l-53.25-30.745c-1.314-0.758-3.444-0.758-4.757 0" fill="#00dfbf"/>
</g>
<g clip-path="url(#ad)" opacity=".7">
<g transform="translate(142.67 158.21)">
<path d="m0 0-26.478 15.287c-1.314 0.759-2.378 2.604-2.378 4.12l-0.014-0.304c0 1.516 1.065 3.36 2.379 4.119l53.25 30.744c1.314 0.759 3.444 0.759 4.757 0l26.478-15.287c1.314-0.759 2.379-2.603 2.379-4.119l0.013 0.304c0-1.516-1.065-3.361-2.379-4.119l-53.25-30.745c-1.314-0.758-3.444-0.758-4.757 0"/>
</g>
</g>
<g transform="translate(145.03 198.09)">
<path d="m0 0-28.856-16.66c-1.314-0.759-2.379-2.603-2.379-4.119l0.013 0.304c0-1.516 1.065-3.361 2.379-4.12l26.478-15.287c0.657-0.379 1.517-0.568 2.378-0.568z" fill="#00dfbf"/>
</g>
<g clip-path="url(#ac)" opacity=".7">
<g transform="translate(145.03 198.09)">
<path d="m0 0-28.856-16.66c-1.314-0.759-2.379-2.603-2.379-4.119l0.013 0.304c0-1.516 1.065-3.361 2.379-4.12l26.478-15.287c0.657-0.379 1.517-0.568 2.378-0.568z"/>
</g>
</g>
<g transform="translate(116.18 178.68)">
<path d="m0 0 26.478-15.287c1.313-0.759 3.442-0.759 4.756 0l53.251 30.744c1.314 0.758 1.314 1.987 0 2.746l-26.478 15.287c-1.313 0.759-3.443 0.759-4.757 0l-53.25-30.744c-1.313-0.759-1.313-1.988 0-2.746" fill="#00dfbf"/>
</g>
<g clip-path="url(#ab)" opacity=".5">
<g transform="translate(116.18 178.68)">
<path d="m0 0 26.478-15.287c1.313-0.759 3.442-0.759 4.756 0l53.251 30.744c1.314 0.758 1.314 1.987 0 2.746l-26.478 15.287c-1.313 0.759-3.443 0.759-4.757 0l-53.25-30.744c-1.313-0.759-1.313-1.988 0-2.746"/>
</g>
</g>
<g transform="translate(116.18 183.71)">
<path d="m0 0v-2.534l27.484-15.868c0.849-0.491 1.896-0.491 2.745 0l54.257 31.325v2.619l-55.629-26.966z" fill="#00dfbf"/>
</g>
<g transform="translate(142.66 168.42)">
<path d="m0 0-26.479 15.287c-1.313 0.758-2.378 2.603-2.378 4.119v4.898c0 1.516 1.065 3.36 2.378 4.119l53.251 30.744c1.313 0.759 3.443 0.759 4.757 0l26.478-15.287c1.313-0.759 2.378-2.603 2.378-4.119v-4.898c0-1.516-1.065-3.276-2.378-4.034l-53.251-30.829c-1.313-0.759-3.443-0.759-4.756 0" fill="#00dfbf"/>
</g>
<g clip-path="url(#aa)" opacity=".60001">
<g transform="translate(142.66 168.42)">
<path d="m0 0-26.479 15.287c-1.313 0.758-2.378 2.603-2.378 4.119v4.898c0 1.516 1.065 3.36 2.378 4.119l53.251 30.744c1.313 0.759 3.443 0.759 4.757 0l26.478-15.287c1.313-0.759 2.378-2.603 2.378-4.119v-4.898c0-1.516-1.065-3.276-2.378-4.034l-53.251-30.829c-1.313-0.759-3.443-0.759-4.756 0"/>
</g>
</g>
<g transform="translate(145.03 213.5)">
<path d="m0 0-28.856-16.66c-1.314-0.759-2.379-2.603-2.379-4.119v-4.898c0-1.516 1.065-3.361 2.379-4.119l26.478-15.287c0.657-0.38 1.517-0.569 2.378-0.569z" fill="#00dfbf"/>
</g>
<g clip-path="url(#y)" opacity=".7">
<g transform="translate(145.03 213.5)">
<path d="m0 0-28.856-16.66c-1.314-0.759-2.379-2.603-2.379-4.119v-4.898c0-1.516 1.065-3.361 2.379-4.119l26.478-15.287c0.657-0.38 1.517-0.569 2.378-0.569z"/>
</g>
</g>
<g transform="translate(116.18 194.1)">
<path d="m0 0 26.478-15.287c1.313-0.758 3.442-0.758 4.756 0l53.251 30.744c1.314 0.758 1.314 1.987 0 2.746l-26.478 15.287c-1.313 0.759-3.443 0.759-4.757 0l-53.25-30.744c-1.313-0.759-1.313-1.988 0-2.746" fill="#00dfbf"/>
</g>
<g clip-path="url(#x)" opacity=".5">
<g transform="translate(116.18 194.1)">
<path d="m0 0 26.478-15.287c1.313-0.758 3.442-0.758 4.756 0l53.251 30.744c1.314 0.758 1.314 1.987 0 2.746l-26.478 15.287c-1.313 0.759-3.443 0.759-4.757 0l-53.25-30.744c-1.313-0.759-1.313-1.988 0-2.746"/>
</g>
</g>
<g transform="translate(153.11 206.25)">
<path d="m0 0c-2.933-1.693-2.933-4.427 0-6.106 2.933-1.68 7.688-1.68 10.621 0 2.932 1.679 2.932 4.413 0 6.106-2.933 1.693-7.688 1.693-10.621 0" fill="#00dfbf"/>
</g>
<g transform="translate(196.35 204.46)">
<path d="m0 0c-0.513-0.292-0.929-1.016-0.929-1.617 0-0.603 0.416-0.855 0.929-0.563 0.513 0.291 0.929 1.015 0.929 1.618-1e-3 0.601-0.416 0.853-0.929 0.562" fill="#00dfbf"/>
</g>
<g transform="translate(196.35 200.87)">
<path d="m0 0c-0.513-0.291-0.929-1.016-0.929-1.617 0-0.603 0.416-0.854 0.929-0.563s0.929 1.015 0.929 1.618c-1e-3 0.601-0.416 0.853-0.929 0.562" fill="#00dfbf"/>
</g>
<g transform="translate(131.57 138.05)">
<path d="m0 0c-0.119 0-0.24 0.03-0.351 0.095l-25.655 14.887c-1.368 0.793-2.183 2.211-2.181 3.793 1e-3 1.582 0.82 2.998 2.189 3.789l18.809 10.859c0.334 0.193 0.763 0.079 0.955-0.256 0.193-0.334 0.079-0.762-0.256-0.955l-18.808-10.858c-0.932-0.539-1.49-1.503-1.491-2.58s0.554-2.042 1.485-2.583l25.656-14.887c0.334-0.194 0.447-0.622 0.254-0.955-0.13-0.224-0.365-0.349-0.606-0.349" fill="#00dfbf"/>
</g>
<g transform="translate(163.71 152.39)">
<path d="m0 0-5.562 22.329c-0.079 0.319-0.185 0.613-0.303 0.895l1.618 0.235-3.528 2.041 1e-3 -1e-3c-1.341 0.782-3.074 0.772-4.771-0.212l-23.192-13.446c-3.015-1.747-5.458-5.99-5.457-9.476l6e-3 -26.843c0-2.133 0.523-3.606 1.588-4.116l-7e-3 -2e-3 3.322-1.916-0.803 2.116c0.059 0.027 0.114 0.046 0.173 0.075 3.814 1.821 5.196 5.136 6.335 8.429l4.41 12.745c1.139 3.293 3.977 7.067 6.339 8.429 2.362 1.363 5.677 0.013 7.404-3.014l2.214-3.881c0.749-1.313 1.798-2.307 2.941-2.902l3.386-1.964-0.861 1.334c0.689 0.014 1.359 0.185 1.966 0.537 2.379 1.372 3.623 5.227 2.781 8.608" fill="#00dfbf"/>
</g>
<g clip-path="url(#w)" opacity=".7">
<g transform="translate(163.71 152.39)">
<path d="m0 0-5.562 22.329c-0.079 0.319-0.185 0.613-0.303 0.895l1.618 0.235-3.528 2.041 1e-3 -1e-3c-1.341 0.782-3.074 0.772-4.771-0.212l-23.192-13.446c-3.015-1.747-5.458-5.99-5.457-9.476l6e-3 -26.843c0-2.133 0.523-3.606 1.588-4.116l-7e-3 -2e-3 3.322-1.916-0.803 2.116c0.059 0.027 0.114 0.046 0.173 0.075 3.814 1.821 5.196 5.136 6.335 8.429l4.41 12.745c1.139 3.293 3.977 7.067 6.339 8.429 2.362 1.363 5.677 0.013 7.404-3.014l2.214-3.881c0.749-1.313 1.798-2.307 2.941-2.902l3.386-1.964-0.861 1.334c0.689 0.014 1.359 0.185 1.966 0.537 2.379 1.372 3.623 5.227 2.781 8.608"/>
</g>
</g>
<g transform="translate(157.84 175.62)">
<path d="m0 0 1.618 0.235-3.528 2.041v-1e-3c-1.34 0.783-3.073 0.773-4.771-0.212l-23.191-13.446c-1.22-0.707-2.336-1.833-3.244-3.141l5.514-3.363 28.174 15.915-0.269 1.077c-0.079 0.32-0.185 0.614-0.303 0.895" fill="#00dfbf"/>
</g>
<g clip-path="url(#v)" opacity=".5">
<g transform="translate(157.84 175.62)">
<path d="m0 0 1.618 0.235-3.528 2.041v-1e-3c-1.34 0.783-3.073 0.773-4.771-0.212l-23.191-13.446c-1.22-0.707-2.336-1.833-3.244-3.141l5.514-3.363 28.174 15.915-0.269 1.077c-0.079 0.32-0.185 0.614-0.303 0.895"/>
</g>
</g>
<g transform="translate(164.53 141.7)">
<path d="m0 0c-2.378-1.373-5.706-0.032-7.433 2.995l-2.214 3.881c-1.727 3.027-5.041 4.377-7.403 3.015-2.362-1.363-5.201-5.136-6.34-8.43l-4.409-12.743c-1.139-3.294-2.521-6.61-6.335-8.431-2.885-1.377-4.273 0.359-4.274 3.844l-6e-3 26.844c-1e-3 3.485 2.443 7.727 5.457 9.475l23.192 13.446c3.015 1.749 6.142 0.424 6.984-2.958l5.562-22.329c0.842-3.381-0.403-7.236-2.781-8.609" fill="#00dfbf"/>
</g>
<g clip-path="url(#u)" opacity=".60001">
<g transform="translate(164.53 141.7)">
<path d="m0 0c-2.378-1.373-5.706-0.032-7.433 2.995l-2.214 3.881c-1.727 3.027-5.041 4.377-7.403 3.015-2.362-1.363-5.201-5.136-6.34-8.43l-4.409-12.743c-1.139-3.294-2.521-6.61-6.335-8.431-2.885-1.377-4.273 0.359-4.274 3.844l-6e-3 26.844c-1e-3 3.485 2.443 7.727 5.457 9.475l23.192 13.446c3.015 1.749 6.142 0.424 6.984-2.958l5.562-22.329c0.842-3.381-0.403-7.236-2.781-8.609"/>
</g>
</g>
<g transform="translate(155.54 167.87)">
<path d="m0 0s0.579-3.29 0.58-3.291c2e-3 -1e-3 2.563 1.645 2.563 1.645l0.581-3.291-2.564-1.647 0.582-3.291-2.559-1.644-0.582 3.29-2.56-1.644-0.581 3.291 2.561 1.644-0.581 3.291z" fill="#1a2e35"/>
</g>
<g transform="translate(156.28 167.48)">
<path d="m0 0s0.579-3.29 0.58-3.291c2e-3 -1e-3 2.563 1.645 2.563 1.645l0.58-3.291-2.563-1.647 0.582-3.291-2.559-1.644-0.582 3.29-2.56-1.644-0.581 3.291 2.561 1.644-0.581 3.291z" fill="#00dfbf"/>
</g>
<g transform="translate(136.14 156.22)">
<path d="m0 0c0.16-0.908-0.283-2.014-0.99-2.469-0.706-0.455-1.409-0.087-1.57 0.822-0.16 0.909 0.284 2.014 0.99 2.469 0.707 0.454 1.41 0.087 1.57-0.822" fill="#1a2e35"/>
</g>
<g transform="translate(137.3 149.64)">
<path d="m0 0c0.16-0.908-0.283-2.014-0.99-2.469-0.706-0.455-1.409-0.087-1.57 0.822-0.16 0.909 0.283 2.014 0.99 2.469 0.707 0.454 1.41 0.087 1.57-0.822" fill="#1a2e35"/>
</g>
<g transform="translate(139.28 154.58)">
<path d="m0 0c0.16-0.908-0.283-2.014-0.99-2.469-0.706-0.455-1.409-0.087-1.57 0.822-0.16 0.909 0.283 2.014 0.99 2.469 0.707 0.454 1.41 0.087 1.57-0.822" fill="#1a2e35"/>
</g>
<g transform="translate(134.16 151.29)">
<path d="m0 0c0.16-0.908-0.283-2.014-0.99-2.469-0.706-0.455-1.409-0.087-1.57 0.822-0.16 0.909 0.283 2.014 0.99 2.469 0.707 0.454 1.41 0.087 1.57-0.822" fill="#1a2e35"/>
</g>
<g transform="translate(136.19 156.19)">
<path d="m0 0c0.16-0.909-0.283-2.015-0.99-2.47-0.707-0.454-1.409-0.087-1.57 0.823-0.16 0.908 0.283 2.013 0.99 2.468s1.41 0.087 1.57-0.821" fill="#1a2e35"/>
</g>
<g transform="translate(137.35 149.61)">
<path d="m0 0c0.16-0.909-0.283-2.015-0.99-2.469-0.707-0.455-1.409-0.088-1.57 0.822-0.16 0.908 0.283 2.014 0.99 2.468 0.707 0.455 1.41 0.087 1.57-0.821" fill="#1a2e35"/>
</g>
<g transform="translate(139.33 154.54)">
<path d="m0 0c0.16-0.909-0.283-2.015-0.99-2.469-0.707-0.455-1.409-0.088-1.57 0.822-0.16 0.908 0.283 2.013 0.99 2.468s1.409 0.087 1.57-0.821" fill="#1a2e35"/>
</g>
<g transform="translate(134.21 151.25)">
<path d="m0 0c0.16-0.909-0.283-2.015-0.99-2.47-0.707-0.454-1.409-0.087-1.57 0.823-0.16 0.908 0.283 2.013 0.99 2.468s1.41 0.087 1.57-0.821" fill="#1a2e35"/>
</g>
<g transform="translate(136.24 156.16)">
<path d="m0 0c0.16-0.908-0.283-2.014-0.99-2.469-0.706-0.455-1.409-0.087-1.57 0.823-0.16 0.908 0.284 2.013 0.99 2.468 0.707 0.455 1.41 0.087 1.57-0.822" fill="#1a2e35"/>
</g>
<g transform="translate(137.4 149.57)">
<path d="m0 0c0.16-0.908-0.283-2.014-0.99-2.469-0.706-0.455-1.409-0.087-1.57 0.823-0.16 0.908 0.283 2.013 0.99 2.468s1.41 0.087 1.57-0.822" fill="#1a2e35"/>
</g>
<g transform="translate(139.39 154.51)">
<path d="m0 0c0.16-0.908-0.283-2.014-0.99-2.469-0.706-0.455-1.409-0.087-1.57 0.823-0.16 0.908 0.283 2.013 0.99 2.468s1.41 0.087 1.57-0.822" fill="#1a2e35"/>
</g>
<g transform="translate(134.27 151.22)">
<path d="m0 0c0.16-0.908-0.283-2.014-0.99-2.469-0.706-0.455-1.409-0.087-1.57 0.823-0.16 0.908 0.283 2.013 0.99 2.468s1.41 0.087 1.57-0.822" fill="#1a2e35"/>
</g>
<g transform="translate(136.3 156.12)">
<path d="m0 0c0.16-0.909-0.283-2.015-0.99-2.47-0.707-0.454-1.409-0.087-1.57 0.823-0.16 0.909 0.283 2.013 0.99 2.468s1.41 0.087 1.57-0.821" fill="#1a2e35"/>
</g>
<g transform="translate(137.46 149.54)">
<path d="m0 0c0.16-0.909-0.283-2.015-0.99-2.469-0.707-0.455-1.409-0.087-1.57 0.822-0.16 0.909 0.283 2.014 0.99 2.468 0.707 0.455 1.41 0.087 1.57-0.821" fill="#1a2e35"/>
</g>
<g transform="translate(139.44 154.48)">
<path d="m0 0c0.16-0.909-0.283-2.015-0.99-2.469-0.707-0.455-1.409-0.087-1.57 0.822-0.16 0.909 0.283 2.013 0.99 2.468s1.409 0.087 1.57-0.821" fill="#1a2e35"/>
</g>
<g transform="translate(134.32 151.19)">
<path d="m0 0c0.16-0.909-0.283-2.015-0.99-2.469-0.707-0.455-1.409-0.087-1.57 0.822-0.16 0.908 0.283 2.013 0.99 2.468s1.41 0.087 1.57-0.821" fill="#1a2e35"/>
</g>
<g transform="translate(136.35 156.09)">
<path d="m0 0c0.16-0.908-0.283-2.014-0.99-2.469-0.706-0.455-1.409-0.087-1.57 0.823-0.16 0.908 0.283 2.013 0.99 2.468s1.41 0.087 1.57-0.822" fill="#1a2e35"/>
</g>
<g transform="translate(137.51 149.51)">
<path d="m0 0c0.16-0.908-0.283-2.014-0.99-2.469-0.706-0.455-1.409-0.087-1.57 0.823-0.16 0.908 0.283 2.013 0.99 2.468s1.41 0.087 1.57-0.822" fill="#1a2e35"/>
</g>
<g transform="translate(139.49 154.44)">
<path d="m0 0c0.16-0.908-0.283-2.014-0.99-2.469-0.706-0.455-1.409-0.087-1.57 0.823-0.16 0.908 0.283 2.013 0.99 2.468s1.41 0.087 1.57-0.822" fill="#1a2e35"/>
</g>
<g transform="translate(134.37 151.15)">
<path d="m0 0c0.16-0.908-0.283-2.014-0.99-2.469-0.706-0.455-1.409-0.087-1.57 0.823-0.16 0.908 0.283 2.013 0.99 2.468s1.41 0.087 1.57-0.822" fill="#1a2e35"/>
</g>
<g transform="translate(136.4 156.06)">
<path d="m0 0c0.16-0.908-0.283-2.014-0.99-2.469s-1.409-0.087-1.57 0.822c-0.16 0.909 0.283 2.014 0.99 2.468 0.707 0.455 1.41 0.088 1.57-0.821" fill="#1a2e35"/>
</g>
<g transform="translate(137.56 149.47)">
<path d="m0 0c0.16-0.908-0.283-2.014-0.99-2.469s-1.409-0.087-1.57 0.822c-0.16 0.909 0.283 2.014 0.99 2.468 0.707 0.455 1.41 0.088 1.57-0.821" fill="#1a2e35"/>
</g>
<g transform="translate(139.54 154.41)">
<path d="m0 0c0.16-0.908-0.283-2.014-0.99-2.469s-1.409-0.087-1.57 0.822c-0.16 0.909 0.283 2.014 0.99 2.468 0.707 0.455 1.409 0.088 1.57-0.821" fill="#1a2e35"/>
</g>
<g transform="translate(134.43 151.12)">
<path d="m0 0c0.16-0.908-0.283-2.014-0.99-2.469s-1.409-0.087-1.57 0.822c-0.16 0.909 0.283 2.014 0.99 2.468 0.707 0.455 1.41 0.088 1.57-0.821" fill="#1a2e35"/>
</g>
<g transform="translate(136.46 156.02)">
<path d="m0 0c0.16-0.909-0.283-2.015-0.99-2.47-0.706-0.454-1.409-0.087-1.57 0.823-0.16 0.908 0.284 2.013 0.99 2.468 0.707 0.455 1.41 0.087 1.57-0.821" fill="#1a2e35"/>
</g>
<g transform="translate(137.62 149.44)">
<path d="m0 0c0.16-0.909-0.283-2.015-0.99-2.47-0.706-0.454-1.409-0.087-1.57 0.823-0.16 0.908 0.283 2.013 0.99 2.468s1.41 0.087 1.57-0.821" fill="#1a2e35"/>
</g>
<g transform="translate(139.6 154.38)">
<path d="m0 0c0.16-0.909-0.283-2.015-0.99-2.47-0.706-0.454-1.409-0.087-1.57 0.823-0.16 0.908 0.283 2.013 0.99 2.468s1.41 0.087 1.57-0.821" fill="#1a2e35"/>
</g>
<g transform="translate(134.48 151.09)">
<path d="m0 0c0.16-0.909-0.283-2.015-0.99-2.47-0.706-0.454-1.409-0.087-1.57 0.823-0.16 0.908 0.283 2.013 0.99 2.468s1.41 0.087 1.57-0.821" fill="#1a2e35"/>
</g>
<g transform="translate(136.51 155.99)">
<path d="m0 0c0.16-0.908-0.283-2.014-0.99-2.469s-1.409-0.087-1.57 0.822c-0.16 0.909 0.283 2.014 0.99 2.469 0.707 0.454 1.409 0.087 1.57-0.822" fill="#1a2e35"/>
</g>
<g transform="translate(137.67 149.41)">
<path d="m0 0c0.161-0.908-0.283-2.014-0.989-2.469-0.707-0.455-1.41-0.087-1.57 0.822-0.161 0.909 0.283 2.014 0.989 2.469 0.707 0.454 1.41 0.087 1.57-0.822" fill="#1a2e35"/>
</g>
<g transform="translate(139.65 154.34)">
<path d="m0 0c0.16-0.908-0.283-2.014-0.99-2.469s-1.409-0.087-1.57 0.822c-0.16 0.909 0.283 2.014 0.99 2.469 0.707 0.454 1.409 0.087 1.57-0.822" fill="#1a2e35"/>
</g>
<g transform="translate(134.53 151.05)">
<path d="m0 0c0.161-0.908-0.283-2.014-0.989-2.469-0.707-0.455-1.41-0.087-1.571 0.822-0.16 0.909 0.284 2.014 0.99 2.469 0.707 0.454 1.41 0.087 1.57-0.822" fill="#1a2e35"/>
</g>
<g transform="translate(136.56 155.96)">
<path d="m0 0c0.16-0.909-0.283-2.015-0.99-2.47-0.706-0.454-1.409-0.087-1.57 0.823-0.16 0.908 0.283 2.013 0.99 2.468s1.41 0.087 1.57-0.821" fill="#1a2e35"/>
</g>
<g transform="translate(137.72 149.37)">
<path d="m0 0c0.16-0.909-0.283-2.015-0.99-2.469-0.706-0.455-1.409-0.087-1.57 0.822-0.16 0.909 0.283 2.014 0.99 2.468 0.707 0.455 1.41 0.087 1.57-0.821" fill="#1a2e35"/>
</g>
<g transform="translate(139.7 154.31)">
<path d="m0 0c0.16-0.909-0.283-2.015-0.99-2.469-0.706-0.455-1.409-0.088-1.57 0.822-0.16 0.908 0.283 2.013 0.99 2.468s1.41 0.087 1.57-0.821" fill="#1a2e35"/>
</g>
<g transform="translate(134.58 151.02)">
<path d="m0 0c0.16-0.909-0.283-2.015-0.99-2.47-0.706-0.454-1.409-0.087-1.57 0.823-0.16 0.908 0.283 2.013 0.99 2.468s1.41 0.087 1.57-0.821" fill="#1a2e35"/>
</g>
<g transform="translate(136.61 155.92)">
<path d="m0 0c0.16-0.908-0.283-2.014-0.99-2.469s-1.409-0.087-1.57 0.822c-0.16 0.909 0.283 2.014 0.99 2.469s1.41 0.087 1.57-0.822" fill="#1a2e35"/>
</g>
<g transform="translate(137.77 149.34)">
<path d="m0 0c0.16-0.908-0.283-2.014-0.99-2.469s-1.409-0.087-1.57 0.823c-0.16 0.908 0.283 2.013 0.99 2.468s1.409 0.087 1.57-0.822" fill="#1a2e35"/>
</g>
<g transform="translate(139.76 154.28)">
<path d="m0 0c0.161-0.908-0.283-2.014-0.989-2.469-0.707-0.455-1.41-0.087-1.571 0.822-0.16 0.909 0.284 2.014 0.99 2.469 0.707 0.455 1.41 0.087 1.57-0.822" fill="#1a2e35"/>
</g>
<g transform="translate(134.64 150.98)">
<path d="m0 0c0.16-0.908-0.283-2.014-0.99-2.469s-1.409-0.087-1.57 0.822c-0.16 0.909 0.283 2.014 0.99 2.469s1.409 0.087 1.57-0.822" fill="#1a2e35"/>
</g>
<g transform="translate(136.67 155.89)">
<path d="m0 0c0.16-0.909-0.283-2.015-0.99-2.469-0.706-0.455-1.409-0.088-1.57 0.822-0.16 0.909 0.283 2.014 0.99 2.468 0.707 0.455 1.41 0.087 1.57-0.821" fill="#1a2e35"/>
</g>
<g transform="translate(137.83 149.31)">
<path d="m0 0c0.16-0.909-0.283-2.015-0.99-2.469-0.706-0.455-1.409-0.087-1.57 0.822-0.16 0.909 0.283 2.014 0.99 2.468 0.707 0.455 1.41 0.087 1.57-0.821" fill="#1a2e35"/>
</g>
<g transform="translate(139.81 154.24)">
<path d="m0 0c0.16-0.909-0.283-2.015-0.99-2.469-0.706-0.455-1.409-0.087-1.57 0.822-0.16 0.909 0.283 2.014 0.99 2.468 0.707 0.455 1.41 0.087 1.57-0.821" fill="#1a2e35"/>
</g>
<g transform="translate(134.69 150.95)">
<path d="m0 0c0.16-0.909-0.283-2.015-0.99-2.469-0.706-0.455-1.409-0.087-1.57 0.822-0.16 0.908 0.283 2.013 0.99 2.468s1.41 0.087 1.57-0.821" fill="#1a2e35"/>
</g>
<g transform="translate(136.72 155.85)">
<path d="m0 0c0.16-0.908-0.283-2.014-0.99-2.469s-1.409-0.087-1.57 0.823c-0.16 0.908 0.283 2.013 0.99 2.468s1.409 0.087 1.57-0.822" fill="#1a2e35"/>
</g>
<g transform="translate(137.88 149.27)">
<path d="m0 0c0.161-0.909-0.283-2.015-0.989-2.47-0.707-0.455-1.41-0.087-1.57 0.823-0.161 0.908 0.283 2.013 0.989 2.468 0.707 0.455 1.41 0.087 1.57-0.821" fill="#1a2e35"/>
</g>
<g transform="translate(139.86 154.21)">
<path d="m0 0c0.16-0.909-0.283-2.015-0.99-2.47s-1.409-0.087-1.57 0.823c-0.16 0.908 0.283 2.013 0.99 2.468s1.409 0.087 1.57-0.821" fill="#1a2e35"/>
</g>
<g transform="translate(134.74 150.92)">
<path d="m0 0c0.161-0.909-0.283-2.015-0.989-2.47-0.707-0.455-1.41-0.087-1.571 0.823-0.16 0.908 0.284 2.013 0.99 2.468 0.707 0.455 1.41 0.087 1.57-0.821" fill="#1a2e35"/>
</g>
<g transform="translate(155.54 167.87)">
<path d="m0 0 0.74-0.39-2.56-1.647-0.74 0.39z" fill="#1a2e35"/>
</g>
<g transform="translate(153.56 162.93)">
<path d="m0 0 0.739-0.39-2.56-1.643-0.74 0.389z" fill="#1a2e35"/>
</g>
<g transform="translate(156.86 164.19)">
<path d="m0 0-0.137 0.775 1.96 1.26 0.74-0.389z" fill="#1a2e35"/>
</g>
<g transform="translate(151 161.29)">
<path d="m0 0 0.74-0.39 0.58-3.291-0.739 0.39z" fill="#1a2e35"/>
</g>
<g transform="translate(154.72 156.35)">
<path d="m0 0 0.74-0.39-0.582 3.29-0.602-0.386z" fill="#1a2e35"/>
</g>
<g transform="translate(136.72 155.85)">
<path d="m0 0c0.16-0.908-0.283-2.014-0.99-2.469s-1.409-0.087-1.57 0.823c-0.16 0.908 0.283 2.013 0.99 2.468s1.409 0.087 1.57-0.822" fill="#00dfbf"/>
</g>
<g transform="translate(137.88 149.27)">
<path d="m0 0c0.161-0.909-0.283-2.015-0.989-2.47-0.707-0.455-1.41-0.087-1.57 0.823-0.161 0.908 0.283 2.013 0.989 2.468 0.707 0.455 1.41 0.087 1.57-0.821" fill="#00dfbf"/>
</g>
<g transform="translate(139.86 154.21)">
<path d="m0 0c0.16-0.909-0.283-2.015-0.99-2.47s-1.409-0.087-1.57 0.823c-0.16 0.908 0.283 2.013 0.99 2.468s1.409 0.087 1.57-0.821" fill="#00dfbf"/>
</g>
<g transform="translate(134.74 150.92)">
<path d="m0 0c0.161-0.909-0.283-2.015-0.989-2.47-0.707-0.455-1.41-0.087-1.571 0.823-0.16 0.908 0.284 2.013 0.99 2.468 0.707 0.455 1.41 0.087 1.57-0.821" fill="#00dfbf"/>
</g>
</g>
<g clip-path="url(#r)">
<g transform="translate(161.32 435.31)">
<path d="m0 0-10.747-6.205c0.054 0.48 0.091 0.957 0.091 1.423v3.114c0 5.54-3.89 7.786-8.688 5.016-1.944-1.122-3.731-2.9-5.178-4.98-0.786 6.967-6.252 9.562-12.891 5.729-7.178-4.144-12.998-14.223-12.998-22.513v-4.657c0-2.147 0.397-3.955 1.1-5.396l-8.926-5.154c-2.661-1.537-4.819-5.273-4.819-8.347 0-3.073 2.158-4.319 4.819-2.782l58.237 33.623c2.662 1.536 4.819 5.274 4.819 8.347s-2.157 4.319-4.819 2.782" fill="#f0f0f0"/>
</g>
</g>
<g clip-path="url(#q)">
<g transform="translate(384.67 155.89)">
<path d="m0 0-1.957 1.124 1.418 0.64s1.116-0.294 1.142-0.346-0.078-0.77-0.078-0.77z" fill="#e1e1e1"/>
</g>
<g transform="translate(384.67 155.89)">
<path d="m0 0-1.957 1.124 1.418 0.64s1.116-0.294 1.142-0.346-0.078-0.77-0.078-0.77z" fill="#00dfbf"/>
</g>
<g clip-path="url(#p)" opacity=".10001">
<g transform="translate(384.67 155.89)">
<path d="m0 0-1.957 1.124 1.418 0.64s1.116-0.294 1.142-0.346-0.078-0.77-0.078-0.77z" fill="#fff"/>
</g>
</g>
<g transform="translate(310.25 118.4)">
<path d="m0 0c1.578-0.911 4.136-0.911 5.714 0l64.14 37.033-96.015 55.442-2.243 1.297-64.139-37.034c-1.573-0.913-1.573-2.397 0-3.299z" fill="#00dfbf"/>
</g>
<g clip-path="url(#o)" opacity=".8">
<g transform="translate(310.25 118.4)">
<path d="m0 0c1.578-0.911 4.136-0.911 5.714 0l64.14 37.033-96.015 55.442-2.243 1.297-64.139-37.034c-1.573-0.913-1.573-2.397 0-3.299z" fill="#fff"/>
</g>
</g>
<g transform="translate(334.34 188.36)">
<path d="m0 0 22.368-12.874 14.48 8.36 16.844-9.731v-12.141c0-1.471-1.651-3.567-2.251-3.222 0 0-1.318-0.27-3.22-1.143-1.901-0.874-4.648-3.439-4.648-3.439l-51.396 29.672z" fill="#e1e1e1"/>
</g>
<g transform="translate(334.34 188.36)">
<path d="m0 0 22.368-12.874 14.48 8.36 16.844-9.731v-12.141c0-1.471-1.651-3.567-2.251-3.222 0 0-1.318-0.27-3.22-1.143-1.901-0.874-4.648-3.439-4.648-3.439l-51.396 29.672z" fill="#00dfbf"/>
</g>
<g clip-path="url(#n)" opacity=".10001">
<g transform="translate(334.34 188.36)">
<path d="m0 0 22.368-12.874 14.48 8.36 16.844-9.731v-12.141c0-1.471-1.651-3.567-2.251-3.222 0 0-1.318-0.27-3.22-1.143-1.901-0.874-4.648-3.439-4.648-3.439l-51.396 29.672z" fill="#fff"/>
</g>
</g>
<g transform="translate(315.97 118.41)">
<path d="m0 0 3.87 2.243 58.069 33.527c0.023 0.725 0.32 1.44 0.792 2.078 0.66 0.923 1.65 1.715 2.54 2.232 0.682 0.396 1.705 0.858 2.739 0.858 0.703 0 1.319-0.22 1.803-0.594 0.374 0.506 1.066 2.452 1.066 4.805h2.199c0-3.035-1-6.081-2.231-6.785l-1.112-0.648c-0.627-0.363-1.121-0.385-1.121-0.044v0.594c0 0.66-1.001 0.627-2.243-0.088-1.231-0.715-2.232-1.825-2.232-2.486v-0.593c0-0.341-0.858-1.1-1.903-1.704l-56.156-32.427-6.08-3.508s-0.012 0-0.012-0.011c-0.791-0.44-1.813-0.671-2.847-0.671v2.54c1.034 0 2.067 0.22 2.859 0.682" fill="#00dfbf"/>
</g>
<g clip-path="url(#m)" opacity=".60001">
<g transform="translate(315.97 118.41)">
<path d="m0 0 3.87 2.243 58.069 33.527c0.023 0.725 0.32 1.44 0.792 2.078 0.66 0.923 1.65 1.715 2.54 2.232 0.682 0.396 1.705 0.858 2.739 0.858 0.703 0 1.319-0.22 1.803-0.594 0.374 0.506 1.066 2.452 1.066 4.805h2.199c0-3.035-1-6.081-2.231-6.785l-1.112-0.648c-0.627-0.363-1.121-0.385-1.121-0.044v0.594c0 0.66-1.001 0.627-2.243-0.088-1.231-0.715-2.232-1.825-2.232-2.486v-0.593c0-0.341-0.858-1.1-1.903-1.704l-56.156-32.427-6.08-3.508s-0.012 0-0.012-0.011c-0.791-0.44-1.813-0.671-2.847-0.671v2.54c1.034 0 2.067 0.22 2.859 0.682" fill="#fff"/>
</g>
</g>
<g transform="translate(216.53 173.53)">
<path d="m0 0v-2.584c0-0.594 0.374-1.177 1.133-1.627l0.044-0.022 86.471-49.921 6.07-3.508v-0.011s0.011 0.011 0.011 0c0.792-0.44 1.814-0.671 2.848-0.671v2.54c-1.034 0-2.067 0.22-2.859 0.682l-3.86 2.232h-0.011l-88.67 51.208c-0.84 0.488-1.174 1.058-1.177 1.682" fill="#00dfbf"/>
</g>
<g clip-path="url(#l)" opacity=".10001">
<g transform="translate(216.53 173.53)">
<path d="m0 0v-2.584c0-0.594 0.374-1.177 1.133-1.627l0.044-0.022 86.471-49.921 6.07-3.508v-0.011s0.011 0.011 0.011 0c0.792-0.44 1.814-0.671 2.848-0.671v2.54c-1.034 0-2.067 0.22-2.859 0.682l-3.86 2.232h-0.011l-88.67 51.208c-0.84 0.488-1.174 1.058-1.177 1.682" fill="#fff"/>
</g>
</g>
<g transform="translate(313.11 134.84)">
<path d="m0 0v-14.822c0.693 0 1.386 0.143 1.902 0.451l7.037 4.058 53.595 30.942 0.011 15.482z" fill="#fff"/>
</g>
<g transform="translate(219.32 187.14)">
<path d="m0 0v-11.414c0-1.209 0.857-2.693 1.902-3.299l82.964-47.897 7.026-4.058c0.518-0.308 1.21-0.451 1.902-0.451v13.25z" fill="#f0f0f0"/>
</g>
<g transform="translate(375.64 155.47)">
<path d="m0 0c0.021 0.726 0.329 1.439 0.803 2.077 0.659 0.924 1.648 1.715 2.54 2.232 0.681 0.396 1.704 0.858 2.737 0.858 0.704 0 1.319-0.22 1.804-0.594v15.454l-7.873-4.545z" fill="#375a64"/>
</g>
<g transform="translate(378.79 159.65)">
<path d="m0 0c-0.837-0.516-1.73-1.248-2.342-2.104-0.473-0.638-0.781-1.352-0.803-2.078l0.01 14.756h3.135z" fill="#f5f5f5"/>
</g>
<g transform="translate(284.09 228.97)">
<path d="m0 0 96.016-55.441v-1.287c0-0.714 1.001-0.978 2.232-0.263 1.242 0.715 2.243 1.605 2.243 2.837l0.121 1.22-97.831 56.475-0.395 0.23c-0.099-0.186-0.165-0.395-0.165-0.593v-0.594c0-0.715-0.99-1.858-2.221-2.584" fill="#00dfbf"/>
</g>
<g clip-path="url(#k)" opacity=".60001">
<g transform="translate(284.09 228.97)">
<path d="m0 0 96.016-55.441v-1.287c0-0.714 1.001-0.978 2.232-0.263 1.242 0.715 2.243 1.605 2.243 2.837l0.121 1.22-97.831 56.475-0.395 0.23c-0.099-0.186-0.165-0.395-0.165-0.593v-0.594c0-0.715-0.99-1.858-2.221-2.584" fill="#fff"/>
</g>
</g>
<g transform="translate(315.97 136.49)">
<path d="m0 0 62.719 36.213c0.797 0.418 1.524 0.754 1.832 0.592l-0.41 0.229-96.016 55.442s-0.564 0.323-1.123 0.646c-0.619 0.359-1.973 0.159-3.025-0.448l-62.234-35.935c-1.573-0.913-1.573-2.397 0-3.299l92.543-53.439c1.578-0.911 4.136-0.912 5.714-1e-3" fill="#00dfbf"/>
</g>
<g clip-path="url(#j)" opacity=".8">
<g transform="translate(315.97 136.49)">
<path d="m0 0 62.719 36.213c0.797 0.418 1.524 0.754 1.832 0.592l-0.41 0.229-96.016 55.442s-0.564 0.323-1.123 0.646c-0.619 0.359-1.973 0.159-3.025-0.448l-62.234-35.935c-1.573-0.913-1.573-2.397 0-3.299l92.543-53.439c1.578-0.911 4.136-0.912 5.714-1e-3" fill="#fff"/>
</g>
</g>
<g transform="translate(286.48 232.74)">
<path d="m0 0 0.396-0.23 97.831-56.475s0.065 0.153 0.209 0.264c0.087 0.054 0.197 0.109 0.329 0.186l0.704 0.407c0.263 0.154 0.56 0.33 0.869 0.506 0.406 0.231 0.78 0.187 1.11-0.099 0.044-0.022 0.077-0.055 0.11-0.099 0.11-0.11 0.209-0.253 0.296-0.407 0.1-0.164 0.188-0.352 0.253-0.55 0.078-0.197 0.144-0.417 0.199-0.638 0.054-0.241 0.098-0.483 0.142-0.747 0.033-0.143 0.044-0.297 0.056-0.451 0.011-0.121 0.021-0.23 0.033-0.363 0.022-0.275 0.032-0.561 0.032-0.858v2.749c0 1.518-1.286 3.487-2.858 4.399l-92.553 53.44c-1.583 0.912-3.859 1.067-5.091 0.362l-1.166-0.681-0.044-0.022c-0.076-0.055-0.274-0.165-0.494-0.286 0 0-0.011 0-0.011-0.011-0.132-0.077-0.264-0.22-0.352-0.396" fill="#00dfbf"/>
</g>
<g clip-path="url(#i)" opacity=".8">
<g transform="translate(286.48 232.74)">
<path d="m0 0 0.396-0.23 97.831-56.475s0.065 0.153 0.209 0.264c0.087 0.054 0.197 0.109 0.329 0.186l0.704 0.407c0.263 0.154 0.56 0.33 0.869 0.506 0.406 0.231 0.78 0.187 1.11-0.099 0.044-0.022 0.077-0.055 0.11-0.099 0.11-0.11 0.209-0.253 0.296-0.407 0.1-0.164 0.188-0.352 0.253-0.55 0.078-0.197 0.144-0.417 0.199-0.638 0.054-0.241 0.098-0.483 0.142-0.747 0.033-0.143 0.044-0.297 0.056-0.451 0.011-0.121 0.021-0.23 0.033-0.363 0.022-0.275 0.032-0.561 0.032-0.858v2.749c0 1.518-1.286 3.487-2.858 4.399l-92.553 53.44c-1.583 0.912-3.859 1.067-5.091 0.362l-1.166-0.681-0.044-0.022c-0.076-0.055-0.274-0.165-0.494-0.286 0 0-0.011 0-0.011-0.011-0.132-0.077-0.264-0.22-0.352-0.396" fill="#fff"/>
</g>
</g>
<g transform="translate(315.95 136.48)">
<path d="m0 0c0.011 0 0.011 0.011 0.011 0.011l3.882 2.243 44.61 25.741 14.24 8.226c1.012 0.593 1.836 0.802 1.891 0.495 0.012-0.012 0.012-0.023 0.012-0.033v-0.65c0-0.714 1-0.714 2.231 0 1.21 0.694 1.737 1.551 1.76 2.243v0.704c0 0.364 0.142 0.737 0.33 0.836 0.088 0.055 0.209 0.122 0.329 0.187 0.198 0.11 0.44 0.253 0.704 0.407 0.264 0.153 0.561 0.33 0.869 0.506 0.406 0.23 0.78 0.187 1.11-0.1 0.044-0.021 0.078-0.054 0.11-0.098 0.077-0.077 0.143-0.165 0.198-0.264 0.044-0.044 0.067-0.088 0.099-0.143 0.099-0.165 0.187-0.352 0.253-0.55 0.077-0.198 0.143-0.417 0.198-0.638 0.055-0.241 0.099-0.483 0.142-0.747 0.034-0.144 0.044-0.297 0.056-0.451 0.011-0.121 0.022-0.231 0.033-0.363 0.022-0.275 0.033-0.561 0.033-0.858v-9.632h-2.2v9.632c0 0.232-0.01 0.462-0.021 0.682l-0.055 0.55c0 0.022 0 0.033-0.012 0.055-0.197-1.749-1.869-3.31-3.32-4.135-0.649-0.384-1.649-0.835-2.683-0.835-0.77 0-1.462 0.275-1.968 0.725l-0.198-0.109c-0.132-0.077-0.253-0.155-0.385-0.232l-56.156-32.426-6.081-3.508s-0.011 0-0.011-0.011c-0.011-0.011-0.022-0.011-0.043-0.022-0.781-0.429-1.793-0.649-2.805-0.649v2.539c1.136 0 2.039 0.251 2.837 0.672" fill="#00dfbf"/>
</g>
<g clip-path="url(#h)" opacity=".60001">
<g transform="translate(315.95 136.48)">
<path d="m0 0c0.011 0 0.011 0.011 0.011 0.011l3.882 2.243 44.61 25.741 14.24 8.226c1.012 0.593 1.836 0.802 1.891 0.495 0.012-0.012 0.012-0.023 0.012-0.033v-0.65c0-0.714 1-0.714 2.231 0 1.21 0.694 1.737 1.551 1.76 2.243v0.704c0 0.364 0.142 0.737 0.33 0.836 0.088 0.055 0.209 0.122 0.329 0.187 0.198 0.11 0.44 0.253 0.704 0.407 0.264 0.153 0.561 0.33 0.869 0.506 0.406 0.23 0.78 0.187 1.11-0.1 0.044-0.021 0.078-0.054 0.11-0.098 0.077-0.077 0.143-0.165 0.198-0.264 0.044-0.044 0.067-0.088 0.099-0.143 0.099-0.165 0.187-0.352 0.253-0.55 0.077-0.198 0.143-0.417 0.198-0.638 0.055-0.241 0.099-0.483 0.142-0.747 0.034-0.144 0.044-0.297 0.056-0.451 0.011-0.121 0.022-0.231 0.033-0.363 0.022-0.275 0.033-0.561 0.033-0.858v-9.632h-2.2v9.632c0 0.232-0.01 0.462-0.021 0.682l-0.055 0.55c0 0.022 0 0.033-0.012 0.055-0.197-1.749-1.869-3.31-3.32-4.135-0.649-0.384-1.649-0.835-2.683-0.835-0.77 0-1.462 0.275-1.968 0.725l-0.198-0.109c-0.132-0.077-0.253-0.155-0.385-0.232l-56.156-32.426-6.081-3.508s-0.011 0-0.011-0.011c-0.011-0.011-0.022-0.011-0.043-0.022-0.781-0.429-1.793-0.649-2.805-0.649v2.539c1.136 0 2.039 0.251 2.837 0.672" fill="#fff"/>
</g>
</g>
<g transform="translate(216.53 191.61)">
<path d="m0 0v-2.584c0-0.594 0.374-1.177 1.133-1.628l0.044-0.021 86.471-49.922 6.07-3.508v-0.011s0.011 0.011 0.011 0c0.792-0.439 1.814-0.671 2.848-0.671v2.54c-1.034 0-2.067 0.221-2.859 0.683l-3.86 2.231h-0.011l-88.67 51.208c-0.84 0.489-1.174 1.059-1.177 1.683" fill="#00dfbf"/>
</g>
<g clip-path="url(#g)" opacity=".10001">
<g transform="translate(216.53 191.61)">
<path d="m0 0v-2.584c0-0.594 0.374-1.177 1.133-1.628l0.044-0.021 86.471-49.922 6.07-3.508v-0.011s0.011 0.011 0.011 0c0.792-0.439 1.814-0.671 2.848-0.671v2.54c-1.034 0-2.067 0.221-2.859 0.683l-3.86 2.231h-0.011l-88.67 51.208c-0.84 0.489-1.174 1.059-1.177 1.683" fill="#fff"/>
</g>
</g>
<g transform="translate(279.94 229.17)">
<path d="m0 0c1.053 0.607 2.406 0.808 3.025 0.448l1.118-0.646c1.237 0.725 2.226 1.869 2.226 2.584v0.593c0 0.199 0.067 0.408 0.165 0.594 0.088 0.176 0.22 0.32 0.352 0.397 0 0.01 0.011 0.01 0.011 0.01 0.22 0.122 0.418 0.231 0.495 0.287l0.044 0.021 1.166 0.682c1.231 0.704 3.507 0.55 5.09-0.363l92.553-53.44c0.033-0.02 0.064-0.045 0.097-0.065l-65.39-37.753c-1.052-0.607-2.755-0.604-3.805 8e-3l-93.156 54.302z" fill="#1a2e35"/>
</g>
<g transform="translate(326.13 147.97)">
<path d="m 0,0 -2.479,1.424 c 0,0 1.423,0.452 2.079,0.145 C 0.256,1.264 0,0 0,0" fill="#00dfbf"/>
</g>
<g clip-path="url(#f)" opacity=".7">
<g transform="translate(326.13 147.97)">
<path d="m 0,0 -2.479,1.424 c 0,0 1.423,0.452 2.079,0.145 C 0.256,1.264 0,0 0,0"/>
</g>
</g>
<g transform="translate(327.83 149.53)">
<path d="m0 0s-2.006 2.211-4.413 0c-2.407-2.21-2.531-4.399-3.528-4.364-0.997 0.036-0.982 17.65-0.982 17.65l9.488-8.825z" fill="#00dfbf"/>
</g>
<g clip-path="url(#e)" opacity=".7">
<g transform="translate(327.83 149.53)">
<path d="m0 0s-2.006 2.211-4.413 0c-2.407-2.21-2.531-4.399-3.528-4.364-0.997 0.036-0.982 17.65-0.982 17.65l9.488-8.825z"/>
</g>
</g>
<g transform="translate(228.41 213.58)">
<path d="m0 0-0.156 0.09 1.526 0.881 65.473 37.8 95.408-61.746c1.577-0.911 1.857-2.224 0.624-2.932l-2.232-1.284-61.204-35.351-0.433 0.316z" fill="#00dfbf"/>
</g>
<g clip-path="url(#d)" opacity=".5">
<g transform="translate(228.41 213.58)">
<path d="m0 0-0.156 0.09 1.526 0.881 65.473 37.8 95.408-61.746c1.577-0.911 1.857-2.224 0.624-2.932l-2.232-1.284-61.204-35.351-0.433 0.316z"/>
</g>
</g>
<g transform="translate(319.68 171.15)">
<path d="m0 0 4.739 0.977v-18.98c-2.859-1.214-4.677-2.361-4.977-4.753z" fill="#375a64"/>
</g>
<g transform="translate(326.51 152.9)">
<path d="m0 0 60.629 35.005c1.052 0.607 1.904 2.084 1.904 3.299v18.71l-61.214-35.651s-0.73-2.647-2.901-3.483c-2.171-0.835-0.516-1.675-0.516-1.675v-15.954c1.875 0.221 2.098-0.251 2.098-0.251" fill="#f0f0f0"/>
</g>
<g transform="translate(320.92 171.8)">
<path d="m0 0c0.627 0.363 1.121 0.385 1.121 0.044v-0.594c0-0.659 1.001-0.627 2.243 0.088 1.232 0.715 2.246 1.824 2.246 2.483v0.596c0 0.341 0.844 1.1 1.889 1.704l-98.646 56.522c-0.604-0.35-1.527-0.888-1.527-0.888-0.255-0.249-0.375-0.673-0.375-0.816v-0.594c0-0.66-1.001-1.771-2.232-2.485-1.243-0.715-2.243-0.748-2.243-0.088v0.593c0 0.341-0.495 0.319-1.122-0.044z" fill="#00dfbf"/>
</g>
<g clip-path="url(#c)" opacity=".60001">
<g transform="translate(320.92 171.8)">
<path d="m0 0c0.627 0.363 1.121 0.385 1.121 0.044v-0.594c0-0.659 1.001-0.627 2.243 0.088 1.232 0.715 2.246 1.824 2.246 2.483v0.596c0 0.341 0.844 1.1 1.889 1.704l-98.646 56.522c-0.604-0.35-1.527-0.888-1.527-0.888-0.255-0.249-0.375-0.673-0.375-0.816v-0.594c0-0.66-1.001-1.771-2.232-2.485-1.243-0.715-2.243-0.748-2.243-0.088v0.593c0 0.341-0.495 0.319-1.122-0.044z"/>
</g>
</g>
<g transform="translate(228.41 231.66)">
<path d="m0 0-0.156 0.09 1.526 0.881 65.473 37.801 95.408-55.094c1.577-0.911 1.857-2.225 0.624-2.933l-2.232-1.283-61.214-36.866z" fill="#00dfbf"/>
</g>
<g clip-path="url(#b)" opacity=".5">
<g transform="translate(228.41 231.66)">
<path d="m0 0-0.156 0.09 1.526 0.881 65.473 37.801 95.408-55.094c1.577-0.911 1.857-2.225 0.624-2.933l-2.232-1.283-61.214-36.866z"/>
</g>
</g>
<g transform="translate(223.38 228.94)">
<path d="m0 0 98.567-56.908-3.451-2.699-98.249 56.724c0.426 1.01 0.867 1.542 1.315 1.834z" fill="#00dfbf"/>
</g>
<g clip-path="url(#a)" opacity=".5">
<g transform="translate(223.38 228.94)">
<path d="m0 0 98.567-56.908-3.451-2.699-98.249 56.724c0.426 1.01 0.867 1.542 1.315 1.834z"/>
</g>
</g>
<g transform="translate(220.63 200.57)">
<path d="m0 0c-0.061 0.035-0.12 0.078-0.178 0.128-0.044 0.022-0.077 0.056-0.11 0.1-0.077 0.076-0.143 0.164-0.198 0.263-0.044 0.044-0.065 0.088-0.098 0.143-0.1 0.165-0.187 0.352-0.253 0.55-0.077 0.198-0.143 0.418-0.199 0.637-0.054 0.242-0.098 0.485-0.142 0.748-0.033 0.143-0.044 0.297-0.055 0.452-0.011 0.12-0.022 0.23-0.033 0.362-0.022 0.275-0.033 0.56-0.033 0.857v16.285c0 1.82 0.36 3.644 0.913 4.964l98.249-56.727 0.415-25.512-98.245 56.732z" fill="#00dfbf"/>
</g>
<g clip-path="url(#au)" opacity=".7">
<g transform="translate(220.63 200.57)">
<path d="m0 0c-0.061 0.035-0.12 0.078-0.178 0.128-0.044 0.022-0.077 0.056-0.11 0.1-0.077 0.076-0.143 0.164-0.198 0.263-0.044 0.044-0.065 0.088-0.098 0.143-0.1 0.165-0.187 0.352-0.253 0.55-0.077 0.198-0.143 0.418-0.199 0.637-0.054 0.242-0.098 0.485-0.142 0.748-0.033 0.143-0.044 0.297-0.055 0.452-0.011 0.12-0.022 0.23-0.033 0.362-0.022 0.275-0.033 0.56-0.033 0.857v16.285c0 1.82 0.36 3.644 0.913 4.964l98.249-56.727 0.415-25.512-98.245 56.732z"/>
</g>
</g>
<g clip-path="url(#at)" opacity=".78999">
<g transform="translate(318.5 169.34)">
<path d="m0 0s-77.375 36.215-84.417 39.533c-4.646 2.189-6.93-2.409-5.83-7.172 0.961-4.16 5.068-8.446 5.068-8.446l-12.651 7.306-0.033 0.017c-0.06 0.035-0.119 0.078-0.178 0.128-0.043 0.023-0.077 0.056-0.109 0.1-0.078 0.076-0.143 0.164-0.199 0.263-0.044 0.044-0.065 0.088-0.098 0.143-0.099 0.165-0.187 0.353-0.253 0.55-0.077 0.198-0.143 0.418-0.198 0.638-0.055 0.242-0.099 0.484-0.143 0.748-0.033 0.142-0.044 0.296-0.055 0.451-0.011 0.12-0.022 0.23-0.033 0.362-0.022 0.275-0.033 0.561-0.033 0.858v16.285c0 1.819 0.36 3.643 0.913 4.964z" fill="#1a2e35"/>
</g>
</g>
<g transform="translate(317.59 164.37)">
<path d="m0 0h2.199c0 2.354 0.693 4.3 1.067 4.806 0.484-0.374 1.099-0.594 1.803-0.594 1.034 0 2.056 0.462 2.738 0.857 0.89 0.517 1.881 1.309 2.54 2.233 0.044 0.065 0.099 0.132 0.132 0.198 0.396 0.582 0.638 1.231 0.66 1.88l58.069 33.526 1.969 1.144 2.517 1.451c0.517 0.297 0.77 0.704 0.77 1.133v2.573c0-0.506-0.297-0.88-0.77-1.166l-0.033-0.021-6.663-3.838-56.156-32.427c-1.045-0.605-1.903-1.363-1.903-1.704v-0.594c0-0.286-0.186-0.66-0.516-1.045-0.396-0.506-1.023-1.033-1.716-1.44-1.242-0.715-2.243-0.748-2.243-0.088v0.594c0 0.34-0.494 0.319-1.121-0.044l-1.111-0.649c-1.231-0.704-2.232-3.75-2.232-6.785" fill="#00dfbf"/>
</g>
<g transform="translate(319.79 164.37)">
<path d="m0 0v-16.284c0-0.231 0.011-0.462 0.021-0.682l0.056-0.55c0-0.021 0-0.033 0.011-0.054 0.198 1.748 1.869 3.309 3.321 4.133 0.649 0.385 1.65 0.836 2.683 0.836 0.769 0 1.462-0.274 1.968-0.725l0.198 0.11c0.132 0.076 0.253 0.153 0.385 0.231l56.156 32.426s1.473 0.847 3.222 1.859c0.296 0.176 0.615 0.351 0.923 0.539 0.946 0.55 1.903 1.099 2.716 1.572 0.374 0.275 0.605 0.616 0.605 1.056v-2.573c0-0.363-0.187-0.715-0.561-0.99 0-0.011-0.011-0.011-0.021-0.022-0.32-0.187-0.661-0.374-1.001-0.583-0.209-0.121-0.418-0.241-0.627-0.362-0.374-0.209-0.737-0.429-1.077-0.627-0.243-0.143-0.462-0.275-0.671-0.385-0.176-0.099-0.33-0.198-0.474-0.275-0.505-0.297-0.824-0.484-0.824-0.484l-44.611-25.741-14.239-8.225c-1.012-0.594-1.837-0.803-1.891-0.495-9e-3 0.043-0.011 0.095-0.011 0.106v0.576c0 0.715-1.001 0.715-2.233 0-1.21-0.693-1.737-1.551-1.759-2.243v-0.705c0-0.362-0.143-0.736-0.329-0.835-0.088-0.055-0.209-0.121-0.331-0.187-0.198-0.109-0.44-0.253-0.704-0.406-0.263-0.155-0.56-0.33-0.868-0.506-0.407-0.232-0.781-0.188-1.111 0.099-0.044 0.022-0.076 0.054-0.109 0.098-0.078 0.077-0.143 0.165-0.199 0.265v0.011c-0.044 0.043-0.065 0.077-0.098 0.131-0.099 0.165-0.187 0.352-0.253 0.55-0.077 0.198-0.143 0.418-0.199 0.638-0.054 0.242-0.098 0.483-0.142 0.748-0.033 0.143-0.044 0.297-0.055 0.45-0.012 0.121-0.022 0.232-0.033 0.363-0.022 0.275-0.033 0.561-0.033 0.858v16.284z" fill="#00dfbf"/>
</g>
<g clip-path="url(#as)" opacity=".60001">
<g transform="translate(317.59 164.37)">
<path d="m0 0h2.199c0 2.354 0.693 4.3 1.067 4.806 0.484-0.374 1.099-0.594 1.803-0.594 1.034 0 2.056 0.462 2.738 0.857 0.89 0.517 1.881 1.309 2.54 2.233 0.044 0.065 0.099 0.132 0.132 0.198 0.396 0.582 0.638 1.231 0.66 1.88l58.069 33.526 1.969 1.144 2.517 1.451c0.517 0.297 0.77 0.704 0.77 1.133v2.573c0-0.506-0.297-0.88-0.77-1.166l-0.033-0.021-6.663-3.838-56.156-32.427c-1.045-0.605-1.903-1.363-1.903-1.704v-0.594c0-0.286-0.186-0.66-0.516-1.045-0.396-0.506-1.023-1.033-1.716-1.44-1.242-0.715-2.243-0.748-2.243-0.088v0.594c0 0.34-0.494 0.319-1.121-0.044l-1.111-0.649c-1.231-0.704-2.232-3.75-2.232-6.785"/>
</g>
<g transform="translate(319.79 164.37)">
<path d="m0 0v-16.284c0-0.231 0.011-0.462 0.021-0.682l0.056-0.55c0-0.021 0-0.033 0.011-0.054 0.198 1.748 1.869 3.309 3.321 4.133 0.649 0.385 1.65 0.836 2.683 0.836 0.769 0 1.462-0.274 1.968-0.725l0.198 0.11c0.132 0.076 0.253 0.153 0.385 0.231l56.156 32.426s1.473 0.847 3.222 1.859c0.296 0.176 0.615 0.351 0.923 0.539 0.946 0.55 1.903 1.099 2.716 1.572 0.374 0.275 0.605 0.616 0.605 1.056v-2.573c0-0.363-0.187-0.715-0.561-0.99 0-0.011-0.011-0.011-0.021-0.022-0.32-0.187-0.661-0.374-1.001-0.583-0.209-0.121-0.418-0.241-0.627-0.362-0.374-0.209-0.737-0.429-1.077-0.627-0.243-0.143-0.462-0.275-0.671-0.385-0.176-0.099-0.33-0.198-0.474-0.275-0.505-0.297-0.824-0.484-0.824-0.484l-44.611-25.741-14.239-8.225c-1.012-0.594-1.837-0.803-1.891-0.495-9e-3 0.043-0.011 0.095-0.011 0.106v0.576c0 0.715-1.001 0.715-2.233 0-1.21-0.693-1.737-1.551-1.759-2.243v-0.705c0-0.362-0.143-0.736-0.329-0.835-0.088-0.055-0.209-0.121-0.331-0.187-0.198-0.109-0.44-0.253-0.704-0.406-0.263-0.155-0.56-0.33-0.868-0.506-0.407-0.232-0.781-0.188-1.111 0.099-0.044 0.022-0.076 0.054-0.109 0.098-0.078 0.077-0.143 0.165-0.199 0.265v0.011c-0.044 0.043-0.065 0.077-0.098 0.131-0.099 0.165-0.187 0.352-0.253 0.55-0.077 0.198-0.143 0.418-0.199 0.638-0.054 0.242-0.098 0.483-0.142 0.748-0.033 0.143-0.044 0.297-0.055 0.45-0.012 0.121-0.022 0.232-0.033 0.363-0.022 0.275-0.033 0.561-0.033 0.858v16.284z"/>
</g>
</g>
<g transform="translate(220.25 226.07)">
<path d="m0 0 93.376-53.913 70.583 40.751c1.056 0.604 1.056 1.594 0 2.199l-92.398 53.352-62.028-35.814h-0.011c-0.605-0.351-1.528-0.89-1.528-0.89-0.253-0.243-0.374-0.671-0.374-0.814v-0.594c0-0.66-1-1.77-2.232-2.485-0.066-0.044-0.132-0.066-0.198-0.099l-2.056 1.188-0.979-0.562c-0.044-0.021-0.077-0.032-0.132-0.065l0.011-0.012-0.725-0.417c-0.44-0.286-0.892-0.825-1.309-1.825" fill="#1a2e35"/>
</g>
<g transform="translate(378.95 212.5)">
<path d="m 0,0 -2.81,1.5 2.56,0.612 C 0.271,1.519 0.304,0.802 0,0" fill="#e1e1e1"/>
</g>
<g clip-path="url(#ar)" opacity=".5">
<g transform="translate(378.95 212.5)">
<path d="m 0,0 -2.81,1.5 2.56,0.612 C 0.271,1.519 0.304,0.802 0,0" fill="#e1e1e1"/>
</g>
</g>
<g transform="translate(304.53 175.01)">
<path d="m0 0c1.577-0.91 4.136-0.91 5.713 0l64.141 37.034-96.015 60.696-2.243 1.298-64.139-42.289c-1.573-0.913-1.573-2.397 0-3.299z" fill="#00dfbf"/>
</g>
<g transform="translate(328.61 250.23)">
<path d="m0 0 48.457-32.841-26.09 19.967 14.481 8.359 16.843-9.731v-17.395c0-1.471-1.65-3.568-2.25-3.222 0 0-1.319-0.27-3.22-1.144-1.902-0.873-4.649-3.438-4.649-3.438l-51.396 34.927z" fill="#00dfbf"/>
</g>
<g clip-path="url(#aq)" opacity=".2">
<g transform="translate(328.61 250.23)">
<path d="m0 0 48.457-32.841-26.09 19.967 14.481 8.359 16.843-9.731v-17.395c0-1.471-1.65-3.568-2.25-3.222 0 0-1.319-0.27-3.22-1.144-1.902-0.873-4.649-3.438-4.649-3.438l-51.396 34.927z"/>
</g>
</g>
<g transform="translate(307.38 196.71)">
<path d="m0 0v-20.077c0.692 0 1.386 0.142 1.902 0.451l7.037 4.057 53.594 30.942 0.012 20.737z" fill="#fff"/>
</g>
<g transform="translate(213.59 249.01)">
<path d="m0 0v-16.669c0-1.21 0.858-2.694 1.902-3.299l89.991-51.955c0.516-0.308 1.21-0.451 1.902-0.451v18.505z" fill="#f0f0f0"/>
</g>
<g transform="translate(369.92 212.08)">
<path d="m0 0c0.022 0.727 0.33 1.439 0.803 2.078 0.66 0.923 1.649 1.715 2.54 2.232 0.681 0.396 1.705 0.858 2.738 0.858 0.704 0 1.319-0.053 1.804-0.427v20.542l-7.873-4.546z" fill="#375a64"/>
</g>
<g transform="translate(373.06 216.27)">
<path d="m0 0c-0.837-0.516-1.73-1.248-2.343-2.105-0.472-0.638-0.78-1.351-0.803-2.078l0.011 20.012h3.135z" fill="#f5f5f5"/>
</g>
<g transform="translate(278.37 290.84)">
<path d="m0 0 96.016-55.441v-1.287c0-0.714 1.001-0.978 2.232-0.264 1.242 0.715 2.243 1.605 2.243 2.837l0.12 1.22-97.83 56.476-0.395 0.23c-0.099-0.187-0.165-0.396-0.165-0.593v-0.594c0-0.715-0.99-1.858-2.221-2.584" fill="#00dfbf"/>
</g>
<g clip-path="url(#ao)" opacity=".2">
<g transform="translate(278.37 290.84)">
<path d="m0 0 96.016-55.441v-1.287c0-0.714 1.001-0.978 2.232-0.264 1.242 0.715 2.243 1.605 2.243 2.837l0.12 1.22-97.83 56.476-0.395 0.23c-0.099-0.187-0.165-0.396-0.165-0.593v-0.594c0-0.715-0.99-1.858-2.221-2.584"/>
</g>
</g>
<g transform="translate(310.24 198.36)">
<path d="m0 0 62.72 36.213c0.797 0.418 1.524 0.754 1.832 0.592l-0.41 0.229-96.016 55.442s-0.564 0.323-1.123 0.647c-0.619 0.358-1.974 0.158-3.025-0.45l-62.234-35.934c-1.573-0.913-1.573-2.397 0-3.299l92.543-53.44c1.577-0.911 4.136-0.911 5.713 0" fill="#00dfbf"/>
</g>
<g transform="translate(280.75 294.61)">
<path d="m0 0 0.396-0.231 97.83-56.475s0.066 0.154 0.21 0.265c0.087 0.054 0.197 0.109 0.329 0.186l0.704 0.407c0.263 0.154 0.56 0.329 0.868 0.506 0.407 0.231 0.781 0.187 1.111-0.099 0.044-0.022 0.076-0.055 0.11-0.099 0.11-0.11 0.209-0.253 0.296-0.407 0.1-0.165 0.188-0.352 0.253-0.55 0.078-0.197 0.144-0.418 0.199-0.638 0.054-0.241 0.098-0.483 0.142-0.747 0.033-0.143 0.044-0.297 0.056-0.451 0.011-0.121 0.021-0.231 0.032-0.363 0.023-0.275 0.033-0.561 0.033-0.858v2.749c0 1.518-1.286 3.486-2.858 4.399l-92.553 53.44c-1.583 0.912-3.859 1.066-5.091 0.362l-1.166-0.681-0.044-0.022c-0.077-0.055-0.274-0.165-0.495-0.286 0 0-0.01 0-0.01-0.011-0.132-0.077-0.264-0.22-0.352-0.396" fill="#00dfbf"/>
</g>
<g transform="translate(310.24 175.02)">
<path d="m0 0 3.87 2.243 58.069 33.527c0.023 0.725 0.32 1.44 0.792 2.078 0.66 0.923 1.65 1.715 2.54 2.232 0.682 0.396 1.705 0.858 2.738 0.858 0.704 0 1.32-0.22 1.804-0.594 0.374 0.506 1.066 2.452 1.066 4.804h2.199c0-3.034-1-6.08-2.232-6.784l-1.111-0.648c-0.627-0.363-1.121-0.385-1.121-0.044v0.594c0 0.659-1.001 0.627-2.243-0.088-1.231-0.715-2.232-1.825-2.232-2.486v-0.593c0-0.341-0.858-1.1-1.903-1.704l-56.156-32.427-6.08-3.508s-0.012 0-0.012-0.012c-0.791-0.439-1.813-0.67-2.847-0.67v2.54c1.034 0 2.067 0.22 2.859 0.682" fill="#00dfbf"/>
</g>
<g clip-path="url(#an)" opacity=".39999">
<g transform="translate(310.24 175.02)">
<path d="m0 0 3.87 2.243 58.069 33.527c0.023 0.725 0.32 1.44 0.792 2.078 0.66 0.923 1.65 1.715 2.54 2.232 0.682 0.396 1.705 0.858 2.738 0.858 0.704 0 1.32-0.22 1.804-0.594 0.374 0.506 1.066 2.452 1.066 4.804h2.199c0-3.034-1-6.08-2.232-6.784l-1.111-0.648c-0.627-0.363-1.121-0.385-1.121-0.044v0.594c0 0.659-1.001 0.627-2.243-0.088-1.231-0.715-2.232-1.825-2.232-2.486v-0.593c0-0.341-0.858-1.1-1.903-1.704l-56.156-32.427-6.08-3.508s-0.012 0-0.012-0.012c-0.791-0.439-1.813-0.67-2.847-0.67v2.54c1.034 0 2.067 0.22 2.859 0.682"/>
</g>
</g>
<g transform="translate(310.22 198.35)">
<path d="m0 0s0.011 0.011 0.022 0.011l3.871 2.243 44.61 25.741 14.239 8.226c1.012 0.593 1.837 0.802 1.892 0.494 0.011-0.011 0.011-0.022 0.011-0.033v-0.649c0-0.715 1.001-0.715 2.232 0 1.21 0.694 1.737 1.551 1.76 2.243v0.704c0 0.363 0.142 0.737 0.33 0.836 0.088 0.055 0.209 0.121 0.329 0.187 0.198 0.11 0.44 0.253 0.704 0.407 0.264 0.153 0.561 0.329 0.868 0.506 0.407 0.23 0.781 0.187 1.111-0.1 0.044-0.021 0.077-0.054 0.11-0.098 0.077-0.077 0.143-0.165 0.198-0.264 0.044-0.044 0.066-0.089 0.099-0.143 0.099-0.165 0.187-0.352 0.253-0.55 0.077-0.198 0.143-0.418 0.198-0.638 0.055-0.241 0.099-0.483 0.142-0.747 0.034-0.144 0.044-0.297 0.056-0.451 0.011-0.121 0.022-0.232 0.032-0.363 0.023-0.275 0.034-0.561 0.034-0.858v-14.888h-2.2v14.888c0 0.231-0.01 0.462-0.021 0.682l-0.056 0.55c0 0.022 0 0.033-0.011 0.054-0.198-1.748-1.869-3.309-3.32-4.134-0.649-0.384-1.649-0.835-2.683-0.835-0.77 0-1.462 0.274-1.968 0.725l-0.198-0.109c-0.132-0.077-0.253-0.155-0.385-0.232l-56.156-32.426-6.081-3.508s-0.011 0-0.011-0.011c-0.011-0.011-0.022-0.011-0.044-0.023-0.78-0.428-1.792-0.648-2.804-0.648v2.538c1.136 0 2.039 0.252 2.837 0.673" fill="#00dfbf"/>
</g>
<g clip-path="url(#am)" opacity=".39999">
<g transform="translate(310.22 198.35)">
<path d="m0 0s0.011 0.011 0.022 0.011l3.871 2.243 44.61 25.741 14.239 8.226c1.012 0.593 1.837 0.802 1.892 0.494 0.011-0.011 0.011-0.022 0.011-0.033v-0.649c0-0.715 1.001-0.715 2.232 0 1.21 0.694 1.737 1.551 1.76 2.243v0.704c0 0.363 0.142 0.737 0.33 0.836 0.088 0.055 0.209 0.121 0.329 0.187 0.198 0.11 0.44 0.253 0.704 0.407 0.264 0.153 0.561 0.329 0.868 0.506 0.407 0.23 0.781 0.187 1.111-0.1 0.044-0.021 0.077-0.054 0.11-0.098 0.077-0.077 0.143-0.165 0.198-0.264 0.044-0.044 0.066-0.089 0.099-0.143 0.099-0.165 0.187-0.352 0.253-0.55 0.077-0.198 0.143-0.418 0.198-0.638 0.055-0.241 0.099-0.483 0.142-0.747 0.034-0.144 0.044-0.297 0.056-0.451 0.011-0.121 0.022-0.232 0.032-0.363 0.023-0.275 0.034-0.561 0.034-0.858v-14.888h-2.2v14.888c0 0.231-0.01 0.462-0.021 0.682l-0.056 0.55c0 0.022 0 0.033-0.011 0.054-0.198-1.748-1.869-3.309-3.32-4.134-0.649-0.384-1.649-0.835-2.683-0.835-0.77 0-1.462 0.274-1.968 0.725l-0.198-0.109c-0.132-0.077-0.253-0.155-0.385-0.232l-56.156-32.426-6.081-3.508s-0.011 0-0.011-0.011c-0.011-0.011-0.022-0.011-0.044-0.023-0.78-0.428-1.792-0.648-2.804-0.648v2.538c1.136 0 2.039 0.252 2.837 0.673"/>
</g>
</g>
<g transform="translate(210.81 253.48)">
<path d="m0 0v-2.584c0-0.594 0.374-1.177 1.133-1.627l0.044-0.022 86.471-49.922 6.07-3.508v-0.01s0.011 0.01 0.011 0c0.791-0.44 1.814-0.671 2.848-0.671v2.54c-1.034 0-2.068 0.22-2.859 0.681l-3.86 2.233h-0.011l-88.67 51.208c-0.841 0.488-1.174 1.058-1.177 1.682" fill="#00dfbf"/>
</g>
<g clip-path="url(#al)" opacity=".2">
<g transform="translate(210.81 253.48)">
<path d="m0 0v-2.584c0-0.594 0.374-1.177 1.133-1.627l0.044-0.022 86.471-49.922 6.07-3.508v-0.01s0.011 0.01 0.011 0c0.791-0.44 1.814-0.671 2.848-0.671v2.54c-1.034 0-2.068 0.22-2.859 0.681l-3.86 2.233h-0.011l-88.67 51.208c-0.841 0.488-1.174 1.058-1.177 1.682"/>
</g>
</g>
<g transform="translate(210.81 230.14)">
<path d="m0 0v-2.584c0-0.594 0.374-1.177 1.133-1.627l0.044-0.022 86.471-49.921 6.07-3.508v-0.012s0.011 0.012 0.011 0c0.791-0.439 1.814-0.67 2.848-0.67v2.54c-1.034 0-2.068 0.22-2.859 0.682l-3.86 2.231h-0.011l-88.67 51.208c-0.841 0.489-1.174 1.059-1.177 1.683" fill="#00dfbf"/>
</g>
<g clip-path="url(#ak)" opacity=".2">
<g transform="translate(210.81 230.14)">
<path d="m0 0v-2.584c0-0.594 0.374-1.177 1.133-1.627l0.044-0.022 86.471-49.921 6.07-3.508v-0.012s0.011 0.012 0.011 0c0.791-0.439 1.814-0.67 2.848-0.67v2.54c-1.034 0-2.068 0.22-2.859 0.682l-3.86 2.231h-0.011l-88.67 51.208c-0.841 0.489-1.174 1.059-1.177 1.683"/>
</g>
</g>
<g transform="translate(250.75 320.87)">
<path d="m0 0-9.172-16.362 13.377-7.119 9.736 14.496z" fill="#ffaaa8"/>
</g>
<g transform="translate(283.32 357.72)">
<path d="m0 0c-5.1 0.872-12.825 1.103-17.847-7.511-5.021-8.614-15.837-29.859-15.837-29.859s6.323-8.181 15.468-9.668l14.951 23.722z" fill="#00dfbf"/>
</g>
<path d="m271.27 137.81h-11.42v19.549h11.42z" fill="#ffaaa8"/>
<g transform="translate(238.2 162.12)">
<path d="m0 0-11.413-0.393-0.571 20.688 11.413 0.392z" fill="#ffaaa8"/>
</g>
<g transform="translate(259.85 143.45)">
<path d="m0 0v1.633c-1.092-0.476-3.631-10.161-8.162-14.294-3.602-3.286-8.515-7.08-9.765-10.743-1.3-3.81 6.843-5.912 10.208-5.317 3.909 0.693 10.687 3.447 12.388 5.998 1.701 2.552 2.498 6.318 3.881 8.188 1.382 1.871 4.569 3.959 5.316 6.124 0.41 1.189-0.077 3.794-0.654 5.994-0.529 2.02-1.103 4.239-1.792 4.05-2e-3 -0.246 0-1.245 0-1.245-0.829-0.918-3.123-1.83-5.709-1.93-1.671-0.063-5.725 0.268-5.711 1.542" fill="#1a2e35"/>
</g>
<g transform="translate(226.67 165.25)">
<path d="m0 0c-0.593-0.021-1.076-0.857-2.384-2.273-1.58-1.711-4.166-3.556-6.717-4.833-4.276-2.141-12.589-5.434-16.352-7.128-2.35-1.059-2.24-3.899 0.19-5.514s8.295-2.78 15.339-1.205c3.837 0.858 8.832 4.402 11.993 4.211 3.161-0.192 9.077-0.146 11.411 1.463 2.334 1.608 1.4 5.044 0.741 7.996-0.72 3.221-1.751 8.151-2.817 7.931l0.035-1.013c-1.373-2.079-8.363-2.928-11.378-1.398z" fill="#1a2e35"/>
</g>
<g transform="translate(317.27 276.25)">
<path d="m0 0c2.501-17.647-0.87-21.035-17.643-37.938-9.018-9.09-23.553-22.424-23.553-22.424s0.21-5.635 0.329-18.275c0.104-11.131-4.549-47.354-4.549-47.354s-7.576-3.188-12.778 0.12c0 0-2.349 26.949-3.618 40.987-1.719 19.041-2.621 28.58-1.648 32.677 0.857 3.611 17.93 25.163 21.868 31.211l-36.278-21.073s1.238-9.23 1.057-16.11c-0.398-15.11-2.254-45.288-2.254-45.288s-8.307-3.717-12.427-0.512c0 0-10.452 65.998-10.452 71.415 0 8.231 35.746 32.8 42.511 38.522 3.861 3.265 8.167 6.751 8.167 6.751z" fill="#375a64"/>
</g>
<g transform="translate(275.68 255.25)">
<path d="m0 0s-5.82 4.302-8.29 11.823c0 0 0.311-5.069 1.292-8.992 0.98-3.925-29.28-23.905-29.28-23.905z" fill="#2b454e"/>
</g>
<g transform="translate(296.27 392.99)">
<path d="m0 0c0-8.953-7.258-16.211-16.211-16.211-8.954 0-16.212 7.258-16.212 16.211 0 8.954 7.258 16.212 16.212 16.212 8.953 0 16.211-7.258 16.211-16.212" fill="#1a2e35"/>
</g>
<g transform="translate(314.12 347.9)">
<path d="m0 0s4.009-3.276 4.009-13.637v-22.374l-0.572-37.619c-8.008-8.712-44.026-5.408-52.909 13.588 0 0 0.071 39.716 0.071 48.611s4.957 20.457 18.603 21.25l17.617-4.099z" fill="#1a2e35"/>
</g>
<g transform="translate(308.08 381.46)">
<path d="m0 0s-2.627-12.342-3.681-14.37c-1.053-2.028-3.23-2.605-3.23-2.605l0.183 8.683z" fill="#1a2e35"/>
</g>
<g transform="translate(304.78 399.14)">
<path d="m0 0s2.83 0.485 5.035-1.77c2.162-2.211 0.955-9.132-1.737-15.911l-4.949-0.568z" fill="#1a2e35"/>
</g>
<g transform="translate(301.65 380.89)">
<path d="m0 0c0.992-0.593 2.407 1.313 3.631 2.594 1.223 1.28 5.219 3.03 7.211-1.169 2.031-4.279-1.759-9.933-4.904-10.92-5.419-1.701-6.233 1.775-6.233 1.775l-0.414-19.55c-4.671-5.217-20.644-3.973-17.633 0.518l0.016 5.949s-4.911-0.745-7.307-0.375c-3.985 0.616-6.493 3.761-7.702 8.075-1.942 6.93-2.68 12.525-1.032 26.154 1.805 14.937 19.18 15.093 28.562 9.188 9.382-5.906 5.805-22.239 5.805-22.239" fill="#ffaaa8"/>
</g>
<g transform="translate(286.99 387.6)">
<path d="m0 0c-2.534 0-4.597-2.062-4.597-4.597s2.063-4.597 4.597-4.597h0.854c2.535 0 4.597 2.062 4.597 4.597s-2.062 4.597-4.597 4.597zm0.854-10.126h-0.854c-3.049 0-5.529 2.48-5.529 5.529s2.48 5.53 5.529 5.53h0.854c3.049 0 5.53-2.481 5.53-5.53s-2.481-5.529-5.53-5.529" fill="#1a2e35"/>
</g>
<g transform="translate(270.13 387.6)">
<path d="m0 0c-2.534 0-4.597-2.062-4.597-4.597s2.063-4.597 4.597-4.597h0.854c2.535 0 4.597 2.062 4.597 4.597s-2.062 4.597-4.597 4.597zm0.854-10.126h-0.854c-3.049 0-5.529 2.48-5.529 5.529s2.48 5.53 5.529 5.53h0.854c3.049 0 5.53-2.481 5.53-5.53s-2.481-5.529-5.53-5.529" fill="#1a2e35"/>
</g>
<g transform="translate(281.53 384.09)">
<path d="m0 0c-0.512 0.84-1.658 1.424-2.921 1.489-1.088 0.055-2.048-0.304-2.549-0.963l-0.743 0.564c0.696 0.918 1.912 1.403 3.339 1.329 1.587-0.081 2.992-0.822 3.67-1.934z" fill="#1a2e35"/>
</g>
<path d="m304.63 383.2h-11.765v0.933h11.765z" fill="#1a2e35"/>
<g transform="translate(301.65 379.22)">
<path d="m0 0c0.499-0.01 2.396 3.139 3.631 4.263 1.712 1.557-0.496 15.659-0.496 15.659s1.644 3.506-1.652 7.133c-2.343 2.581-6.262 2.867-12.952 3.919-3.51 0.551-8.832 1.534-12.336 2.186-4.185 0.778-7.65 1.601-10.605-0.967-2.3-1.998-3.29-5.53-2.052-8.314 0.29-0.653 0.71-1.243 1.189-1.775 0.846-0.942 1.805-1.684 3.011-2.074 0 0 1.825-1.62 8.174-2.393 6.35-0.773 16.238 0.149 17.59 0.334 1.841 0.252 2.234-1.533 3.227-6.407 0.871-4.279 1.593-11.532 3.271-11.564" fill="#1a2e35"/>
</g>
<g transform="translate(304.77 398.04)">
<path d="M 0,0 6,3.22 C 5.148,4.939 3.115,5.612 1.458,4.723 -0.198,3.833 -0.851,1.719 0,0" fill="#1a2e35"/>
</g>
<g transform="translate(283.32 360.08)">
<path d="m0 0s8.897 1.793 12.008 3.446c2.082 1.107 3.797 3.025 4.3 4.255 0 0-0.582-2.64-2.443-5.018-2.274-2.909-13.864-5.05-13.864-5.05z" fill="#ff9090"/>
</g>
<g transform="translate(285.46 383.11)">
<path d="m0 0c0-1.023 0.799-1.85 1.783-1.847 0.985 2e-3 1.783 0.834 1.783 1.857s-0.798 1.85-1.783 1.848c-0.984-3e-3 -1.783-0.835-1.783-1.858" fill="#1a2e35"/>
</g>
<g transform="translate(288.32 390.49)">
<path d="M 0,0 3.814,-2.105 C 4.377,-1.009 3.979,0.351 2.926,0.932 1.872,1.513 0.562,1.096 0,0" fill="#1a2e35"/>
</g>
<g transform="translate(284.13 370.8)">
<path d="m0 0-4.069-1.527c0.402-1.167 1.639-1.771 2.764-1.349 1.124 0.422 1.708 1.709 1.305 2.876" fill="#ff9090"/>
</g>
<g transform="translate(269.1 388.93)">
<path d="M 0,0 3.479,2.679 C 2.769,3.675 1.415,3.882 0.455,3.143 -0.506,2.403 -0.709,0.996 0,0" fill="#1a2e35"/>
</g>
<g transform="translate(270.63 383.62)">
<path d="m0 0c0-1.023 0.799-1.85 1.784-1.847 0.985 2e-3 1.782 0.834 1.782 1.857s-0.797 1.85-1.782 1.847c-0.985-2e-3 -1.784-0.834-1.784-1.857" fill="#1a2e35"/>
</g>
<g transform="translate(279.44 385.05)">
<path d="m0 0-0.207-10.812-6.391 1.408z" fill="#ff9090"/>
</g>
<g transform="translate(268.52 295.18)">
<path d="m0 0v-1.031c0-1.04-0.556-2.004-1.453-2.524l-27.772-15.982c-0.449-0.259-0.954-0.387-1.459-0.387-0.499 0-1.004 0.128-1.453 0.387l-50.946 29.413c-0.902 0.52-1.459 1.484-1.459 2.524v0.709l53.858-31.095z" fill="#00dfbf"/>
</g>
<g clip-path="url(#aj)" opacity=".60001">
<g transform="translate(268.52 295.18)">
<path d="m0 0v-1.031c0-1.04-0.556-2.004-1.453-2.524l-27.772-15.982c-0.449-0.259-0.954-0.387-1.459-0.387-0.499 0-1.004 0.128-1.453 0.387l-50.946 29.413c-0.902 0.52-1.459 1.484-1.459 2.524v0.709l53.858-31.095z"/>
</g>
</g>
<g transform="translate(183.97 308.29)">
<path d="m0 0 30.208 17.438c0.537 0.311 1.199 0.311 1.736 0l52.405-30.26c0.257-0.148 0.257-0.52 0-0.668l-30.491-17.607z" fill="#00dfbf"/>
</g>
<g clip-path="url(#ai)" opacity=".5">
<g transform="translate(183.97 308.29)">
<path d="m0 0 30.208 17.438c0.537 0.311 1.199 0.311 1.736 0l52.405-30.26c0.257-0.148 0.257-0.52 0-0.668l-30.491-17.607z"/>
</g>
</g>
<g transform="translate(238.11 279.76)">
<path d="m0 0 16.293 9.397-47.641 27.505-16.378-9.347z" fill="#1a2e35"/>
</g>
<g transform="translate(246.12 305.9)">
<path d="m0 0-0.301-0.173-7.985-4.61-14.201 8.2-0.296 0.168 8.286 4.783z" fill="#1a2e35"/>
</g>
<g transform="translate(245.82 305.73)">
<path d="m0 0-7.985-4.61-14.202 8.2 7.991 4.61z" fill="#1a2e35"/>
</g>
<g clip-path="url(#ah)" opacity=".7">
<g transform="translate(237.83 277.2)">
<path d="m0 0v-1.937c-0.5 0-1.004 0.127-1.453 0.387l-50.946 29.412c-0.903 0.52-1.459 1.484-1.459 2.524v0.709z"/>
</g>
</g>
<g transform="translate(237.01 276.77)">
<path d="m0 0c-0.964-0.372-2.06-0.301-2.973 0.229l-50.722 29.286c-0.892 0.515-1.504 1.397-1.678 2.411l-5.553 33.115c-0.03 0.188-0.046 0.377-0.046 0.566 0 0.923 0.368 1.805 1.02 2.453l52.711-30.438c0.658-0.382 1.112-1.035 1.239-1.785z" fill="#00dfbf"/>
</g>
<g clip-path="url(#ag)" opacity=".5">
<g transform="translate(237.01 276.77)">
<path d="m0 0c-0.964-0.372-2.06-0.301-2.973 0.229l-50.722 29.286c-0.892 0.515-1.504 1.397-1.678 2.411l-5.553 33.115c-0.03 0.188-0.046 0.377-0.046 0.566 0 0.923 0.368 1.805 1.02 2.453l52.711-30.438c0.658-0.382 1.112-1.035 1.239-1.785z"/>
</g>
</g>
<g transform="translate(237.83 277.2)">
<path d="m0 0-0.347-0.199c-0.153-0.087-0.311-0.163-0.474-0.23l-6.002 35.838c-0.127 0.75-0.581 1.402-1.239 1.784l-52.71 30.438c0.204 0.204 0.443 0.382 0.703 0.536l52.818-30.494c0.658-0.382 1.112-1.035 1.239-1.785z" fill="#e1e1e1"/>
</g>
<g transform="translate(208.44 307.34)">
<path d="m0 0c-0.372 2.217-2.661 5.162-5.113 6.577-2.451 1.415-4.137 0.765-3.766-1.452 0.372-2.217 2.661-5.162 5.113-6.577 2.452-1.416 4.138-0.765 3.766 1.452" fill="#00dfbf"/>
</g>
<g transform="translate(218.83 285.78)">
<path d="m0 0c-2e-3 0.038-0.087 1.82-0.854 4.248-0.775 2.455-3.101 11.887-8.398 13.308-0.628 0.168-1.304 0.234-1.938 0.061-1.473-0.401-2.145-1.928-2.434-3.296-0.422-2.008-0.147-4.077-0.033-6.102-0.812 0.928-1.769 1.729-2.824 2.366-1.004 0.607-2.043 1.238-3.252 1.163-0.326-0.02-0.693-0.111-0.85-0.398-0.193-0.356 0.044-0.789 0.301-1.101 0.53-0.642 1.178-1.179 1.703-1.825 0.439-0.541 0.786-1.149 1.154-1.74 0.672-1.076 1.422-2.099 2.172-3.121 1.529-2.087 3.17-4.081 5.337-5.525 1.342-0.893 4.544-2.755 8.002-3.187 3.867-0.483 7.628-0.425 10.071 0.432z" fill="#ffaaa8"/>
</g>
<g transform="translate(313.06 347.61)">
<path d="m0 0c-3.575 1.833-8.794-5.453-7.133-13.073 1.661-7.619 9.84-34.405 9.84-34.405s-36.952-3.308-40.09-3.69c-2.188-0.268-4.639 0.844-6.667 1.517-2.765 0.917-5.548 1.555-8.27 2.562-0.489 0.18-0.997 0.363-1.516 0.313-0.518-0.05-1.045-0.408-1.109-0.924-0.038-0.309 0.091-0.612 0.227-0.892 0.868-1.77 2.194-3.315 3.812-4.443 0.752-0.525 1.586-0.965 2.243-1.615 0.434-0.432 1.378-1.618 1.034-2.272l-14.686-8.452s3.385-2.942 15.625 0.488c8.453 2.369 12.863 4.572 12.863 4.572s43.547-1.811 51.41 0.576c2.78 0.844 3.786 2.813 1.907 11.779-2.182 10.413-8.35 29.349-9.755 34.316-3.068 10.856-3.822 10.611-9.735 13.643" fill="#ffaaa8"/>
</g>
<g transform="translate(311.22 349.16)">
<path d="m0 0s5.896-1.656 8.435-4.977c2.45-3.203 12.381-35.668 12.381-35.668s-7.619-7.046-18.657-5.011c0 0-7.885 22.353-8.721 28.321-1.528 9.254 2.992 16.535 6.562 17.335" fill="#00dfbf"/>
</g>
<g transform="translate(279.38 327.48)">
<path d="M 0,0 C -0.475,2.499 1.088,3.845 3.489,3.006 5.891,2.167 8.222,-0.539 8.696,-3.038 9.171,-5.537 0.475,-2.499 0,0" fill="#00dfbf"/>
</g>
<g transform="translate(295.87 319.69)">
<path d="m0 0-7.095 4.506c0.365-1.923-2.226-1.654-4.555-0.841-2.33 0.814-5.18 2.446-5.545 4.368l-6.184 0.08c-0.566 7e-3 -0.579-0.736-0.028-1.351 1.53-1.71 5.084-4.733 12.562-7.345 7.491-2.616 10.358-1.805 11.434-0.988 0.384 0.291 0.061 1.158-0.589 1.571" fill="#00dfbf"/>
</g>
</g>
</g>
</svg>
